<?xml version="1.0" encoding="UTF-8"?><svg id="Layer_2" xmlns="http://www.w3.org/2000/svg" viewBox="0 0 331.2 480.25"><g id="Layer_1-2"><path d="M8.8,259.63c2.5,1.75,3.81,2.67,5.7,3.99.82-4.32.97-7.75-2.07-10.88-2.78-2.85-5.58-5.77-7.83-9.03-3.76-5.44-3.47-11.52-1.99-17.72,2.62-10.98,8.96-21.31,5.92-33.47,8.35,9.09,3.39,20.76,6.77,30.79,0-10.37.37-20.76-.28-31.08-.15-2.34-3.48-4.97-5.93-6.6-8.62-5.73-8.82-6.06-3.25-14.57.45-.7.8-1.51,1.39-2.07,6.45-6.11,8.49-13.8,9.95-22.42,1.98-11.72,5.83-23.14,9.15-34.61,1.11-3.83,1.75-6.9-.95-10.66-4.47-6.22.33-14.97,8.02-15.02,4.63-.03,7.75-1.82,10.46-5.45,3.78-5.05,8.24-9.6,11.89-14.74,1.56-2.19,2.68-5.36,2.51-7.99-.61-9.51,4.85-14.27,14.25-12.3,2.31.49,5.27.03,7.37-1.06,5.45-2.84,10.75-6.05,15.77-9.59,1.94-1.37,3.74-3.86,4.27-6.15,2.32-9.86,9.39-12.83,17.71-7.33,1.74,1.15,4.37,1.85,6.39,1.53,6.06-.96,12.02-2.56,18.03-3.84,2.54-.54,3.12-1.67,2.36-4.26-.68-2.34-1.4-5.35-.48-7.3,1.36-2.86,3.73-6.04,6.47-7.21,3.01-1.28,7.08-.65,9.14,3.09,1.75,3.18,2.22,6.25-1.89,8.66-.21-1.02-.16-1.92-.56-2.53-.91-1.41-1.86-3.51-3.13-3.78-1.34-.29-3.72.82-4.43,2.04-.69,1.17-.46,4.06.46,4.78,2.37,1.84,5.23,3.67,8.1,4.07,4.74.66,9.67.51,14.46.06,2.49-.23,5.28-1.36,7.13-2.99,1.24-1.1,1.47-3.83,1.33-5.77-.06-.92-2.73-2.62-3.05-2.38-1.54,1.14-2.72,2.78-3.94,4.31-.39.49-.54,1.19-.8,1.8-3.99-2.14-4.45-7.12-1.01-9.83,5.5-4.34,13.6-1.23,14.57,5.67.23,1.62.43,3.5-.15,4.94-2.27,5.62.85,6.87,5.43,7.54,3.28.48,6.52,1.3,9.71,2.24,4.68,1.38,8.69,1.44,13.01-1.91,5.76-4.45,14.27-.8,15.37,6.51.74,4.96,3.2,7.69,7.35,9.77,2.81,1.4,5.52,3.09,8.06,4.95,4.61,3.38,9.09,5.17,15.24,3.7,6.94-1.66,12.84,4.81,11.29,11.84-.76,3.44.13,5.7,2.16,8.13,4.48,5.35,9.02,10.68,13.2,16.26,2.34,3.11,5.14,4.32,8.87,4.46,8.77.35,13.16,7.6,8.75,15.19-2.41,4.15-1.72,7.43-.56,11.62,3.72,13.4,6.69,27.01,10.25,40.45.93,3.52,2.67,6.92,4.54,10.07,2.37,3.98,5.29,7.64,7.92,11.46,2.07,3.01,1.89,6.19-1.47,7.58-10.74,4.44-11.66,13.19-11.11,22.99.33,5.78.06,11.6.69,17.44,3.68-9.89-1.7-21.5,6.15-31.1.54.89,1,1.3.93,1.59-2.26,9.46,1.66,17.9,3.94,26.72,1.47,5.69,2.93,12.15,1.59,17.58-1.31,5.35-5.83,10.1-9.55,14.6-2.88,3.48-3.42,6.8-2.2,11.32,1.58-1.11,2.73-1.93,2.76-1.95,1.1,8.84,2.9,18.05,3.19,27.31.2,6.31-1.64,12.69-2.71,19.02-.9,5.34-2.89,10.65-2.88,15.97.08,38.14.52,76.28.93,114.42.1,9.4,2.33,18.08,7.87,26.06,2.8,4.04,3.78,9.34,5.85,14.75-6.36.35-11.63.86-16.9.89-17.33.1-34.67.04-52,.03-6.03,0-8.73-4.33-5.75-9.66,3.48-6.23,7.32-12.25,10.95-18.39.4-.67.71-1.53.69-2.3-.27-12.58,1.01-25.13-3.68-37.49-5.83-15.37-5.76-31.7-4.1-47.81.35-3.41,4.08-7.08,7.14-9.51,13.86-10.97,27.56-22.06,38.45-36.16,5.87-7.59,10.72-15.68,11.05-25.67.03-.9-.18-1.81-.75-3-8.03,27.4-29.13,41.49-54.26,53.35-.94-3.58-2.58-7.18-2.73-10.84-1.49-34.92,15.85-59.31,43.88-77.62,4.86-3.18,9.84-6.24,14.32-9.91,5.62-4.61,7.41-10.71,5.11-17.8-.39.04-.89.01-.93.12-2.39,8.15-8.28,13.24-14.92,17.96-10.56,7.51-20.79,15.49-31.2,23.22-2.36,1.75-4.87,3.29-6.94,4.68-.86-8.28-.99-16.4-2.69-24.17-2.08-9.5-7.06-17.57-16.05-22.45-5.12-2.78-10.45-3.15-15.93-1.39-.94.3-1.72,1.12-2.69,2.42,10.61.19,19.77,2.54,24.11,13.27,1.68,4.16,3.2,8.34.66,13.99-3.41-9.02-6.44-17.4-15.25-20.7,3,12.69,7.22,25,8.54,37.61,1.29,12.37,3.16,25.41-3.6,39.38-7.37-7.82-13.45-15.11-20.39-21.47-13.7-12.56-24.97-26.76-31.53-44.25-2.1-5.61-2.85-11.74-5.2-17.8-.21,3.28-1,6.64-.52,9.81,2.92,19.43,12.82,35.43,25.36,50.03,8.88,10.33,18.16,20.34,26.63,30.99,3.59,4.5,5.58,10.27,7.54,16.12-6.62-3.56-12.06-8.72-19.89-9.08.18.63.17,1.08.36,1.2,15.67,9.48,19.92,24.3,19.87,41.44-.05,19.25-1.34,38.26-8.64,56.33-1.58,3.92-4.26,7.39-6.44,11.07-.67-.31-1.33-.62-2-.93,1.67-5.64,3.2-11.32,5.05-16.9,6.43-19.42,7.83-39.4,6.13-59.59-.91-10.79-6.2-19.59-15.48-25.58-8.8-5.68-13.41-3.83-15.63,6.04-2.22-2.09-2.87-6.94-1.4-10.55,2.6-6.41,6.64-7.64,25.84-7.47-5.67-6.47-10.54-12.5-15.91-18.05-12.46-12.87-23.79-26.48-30.89-43.16-3.88-9.12-6.49-18.49-5.96-28.54.63-12.05,9.89-18.79,20.28-14.71,8.47,3.32,10.93,14.81,4.68,21.85-.89-3.27-1.35-6.76-2.82-9.74-.86-1.74-3.35-2.66-5.11-3.95-1.09,1.89-2.95,3.71-3.14,5.68-.94,9.66,3.97,17.63,8.19,25.72,7.53,14.44,18.9,25.59,31,36.15,2.44,2.13,4.03,5.23,6.01,7.89.8-.43,1.59-.86,2.39-1.29.31-2.98.94-5.96.87-8.93-.37-15.65-1.11-31.26-7.93-45.8-.57-1.21-.94-2.58-1.78-3.56-1.41-1.64-3.71-4.56-4.6-4.22-2.05.78-4.6,3.02-4.91,4.99-.65,4.09-.1,8.39.23,12.59.12,1.49,1.07,2.91,1.89,5-7.76-4.23-11.99-14.09-7.92-22.91,4.21-9.13,2.34-16.27-1.16-24.82-2.91-7.13-3.51-15.47-3.84-23.33-.42-9.93,4.91-17.3,13.9-21.14,9.23-3.94,18.05-2.11,25.27,4.95,3.42,3.34,5.65,3.29,8.12-.73,1.12-1.82,2.42-3.75,4.12-4.97,5-3.57,4.67-8.47,3.33-13.28-11.63-42-37.06-70.85-79.41-84.08-35.94-11.23-65.69,1.68-92.8,23.47-19.13,15.38-30.28,36.29-36.4,59.98-1.43,5.52-1.11,9.99,3.28,14.03,2.66,2.45,4.43,6.88,7.35,7.69,2.11.58,5.41-3.42,8.27-5.23,7.57-4.78,15.69-4.67,23.35-1,7.89,3.79,11.78,10.61,12.26,19.65.61,11.47-1.57,22.16-7.1,32.16-1.96,3.54-1.68,6.67.01,10.34,4.01,8.7,5.34,17.48-1.12,25.9-.98,1.27-1.16,3.16-1.7,4.76l-2.52-2.22c.82-2.45,2.29-4.91,2.3-7.36.02-3.84-.17-8.02-1.68-11.44-2.09-4.76-5.82-4.72-7.82.07-3.31,7.93-5.96,16.16-8.57,24.36-1.48,4.64-2.31,9.49-4.13,14.09-3.19-15.23,1.85-29.01,8.61-43.71-11.28,3.31-13.71,11.95-16.86,20.01-2.63-3.53-2.96-7.48.45-13.07,2.42-3.96,5.64-8.11,9.55-10.28,3.93-2.17,9.17-1.99,14.24-4.03-2.6-.72-5.18-2.02-7.79-2.06-10.86-.17-18.21,5.79-22.99,14.85-5.56,10.53-7.37,21.91-4.99,35.27-5.11-3.73-9.11-6.6-13.05-9.53-8.68-6.44-17.28-12.99-26.03-19.32-6.8-4.92-13.65-9.68-15.39-19.12-3.24,5.29-2.96,11.07,1.78,16.13,3.67,3.91,8.3,7.09,12.91,9.93,22.97,14.16,40.5,32.62,46.04,59.87,1.66,8.15,1.13,16.85.75,25.26-.24,5.37-2.29,6.08-6.81,3.48-11.65-6.71-23.97-12.45-33.06-22.87-7.28-8.34-13.17-17.47-16-28.83-1.77,4.81-1.06,10.66,2.01,16.86,5.94,12,15.01,21.54,24.76,30.38,7.25,6.58,15.05,12.56,22.72,18.66,4.48,3.57,6.73,8.03,6.85,13.75.36,16.22-1.38,31.99-5.97,47.77-2.95,10.14-3.07,21.36-2.87,32.06.09,4.65,3.71,9.53,6.54,13.76,3.17,4.73,5.54,10.57,5,16.74H0c1.55-6.61,2.25-12.71,6.92-17.32.36-.35.9-.64,1.03-1.07,1.77-5.49,4.86-10.97,4.98-16.51.68-32.13.65-64.28.89-96.42.04-5.32.16-10.65.4-15.97.43-9.71-1.07-18.89-4.08-28.31-2.25-7.05-1.44-15.41-.58-23.03.77-6.87,3.08-13.53-.75-21.36ZM164.51,44.15c.47.03.95.06,1.42.09.33.9,1.01,1.81.95,2.68-.67,10.57,5.75,11.86,14.56,13.73,44.84,9.55,75.24,36.36,90.52,79.7,4.59,13.02,3.31,11.81,17.1,11.9,8.87.06,9.39-.6,7.49-9.08-7.14-31.76-22.84-58.34-48.22-78.88-26.23-21.22-56.29-32.83-90.05-30.12-46.18,3.7-81.98,26.09-106.84,65.38-8.7,13.75-14.23,28.87-17.72,44.72-1.47,6.69-.37,7.96,5.99,8,2.67.02,5.36-.24,7.99.05,5.27.58,8.19-1.73,9.29-6.76.28-1.3.75-2.55,1.17-3.82,11.36-34.68,33.65-59.65,67.25-73.83,9.83-4.15,20.67-5.95,31.11-8.58,3.55-.9,6.1-1.83,6.06-6.32-.03-2.95,1.24-5.91,1.92-8.87ZM310.49,323.92c-8.35,8-15.19,15.55-23.05,21.8-8.73,6.94-14.21,14.63-12.19,26.28.29,1.7-.65,3.58-.66,5.38-.1,23.5-.09,46.99-.21,70.49-.02,3.59,1.35,5.15,5.01,5.1,8.82-.11,17.65-.07,26.47,0,4.45.04,6.55-1.46,6.44-6.47-.44-18.97-.5-37.96-.67-56.94-.16-17.65-.25-35.31-.45-52.96-.04-3.77-.39-7.55-.68-12.69ZM20.26,324.32c-.26,2.34-.49,3.45-.5,4.57-.14,11.32-.25,22.65-.37,33.97-.32,28.46-.62,56.92-1,85.38-.04,3.27,1.54,4.64,4.47,4.66,9.49.06,18.99.05,28.49-.03,3.35-.03,4.99-1.58,4.92-5.3-.5-28.29-.89-56.58-1.19-84.87-.05-4.37-1.89-7.61-4.89-10.44-7.97-7.54-15.94-15.08-23.94-22.6-1.66-1.56-3.41-3.04-5.98-5.34ZM305.71,152.25c.78-.15,1.57-.29,2.35-.44,0-2.44.41-4.97-.06-7.31-8.64-43.04-31.38-76.69-68.68-99.72-25.86-15.97-54.25-24.9-85.01-21.4-45.41,5.17-81.66,26.62-108.02,64.17-12.11,17.25-19.75,36.47-23.71,57.14-.46,2.4-2.07,5.61,2.78,7.42.86-2.44,1.91-4.62,2.39-6.92,6.33-30.25,19.35-56.9,42.39-77.99,32-29.29,69.45-43.41,112.92-37.62,41.37,5.51,73.38,26.96,97.19,60.94,11.44,16.32,18.45,34.5,22.37,53.98.54,2.68,2.03,5.16,3.08,7.74ZM277.23,259.99c9.78-7.18,19.25-13.87,28.35-21.02,1.9-1.5,3.36-4.67,3.47-7.14.39-8.8.32-17.63.03-26.44-.26-8.19-6.59-14.85-13.65-14.97-9.48-.16-17.7,6.11-17.99,14.54-.59,16.94-.7,33.9-.95,50.86-.02,1.24.43,2.49.74,4.18ZM53.38,260.05c.41-1.13.71-1.57.71-2-.04-15.63,0-31.26-.23-46.89-.1-6.34-1.37-12.18-6.51-17.01-4.88-4.59-10.64-4.96-15.68-3.11-5.28,1.93-10.06,6.13-10.2,12.91-.18,9.3-.47,18.62-.06,27.91.11,2.56,1.95,5.72,3.99,7.39,6.42,5.24,13.33,9.88,20.03,14.79,2.59,1.9,5.12,3.87,7.95,6.02ZM308.95,257.92c-12.44,7.79-22.6,16.13-30.22,27.29-1,1.47-1.93,3.33-2.01,5.04-.5,11.6-.88,23.2-1.02,34.81-.03,2.74,1.61,4.56,4.6,2.52,3.41-2.33,7.06-4.47,9.99-7.32,12.03-11.67,22.2-24.27,19.91-42.75-.55-4.42,0-8.97-.13-13.45-.05-1.71-.61-3.4-1.13-6.13ZM21.12,258.18c-.33,4.87-.85,8.48-.77,12.06.19,7.94-1.03,16.47,1.44,23.7,4.78,13.96,14.5,24.88,27.16,32.79,4.37,2.73,6.13,1.71,6.04-3.34-.17-10.3-.28-20.62-1.02-30.89-.23-3.27-1.56-7.17-3.76-9.47-6.97-7.3-14.52-14.05-22-20.84-1.64-1.49-3.94-2.26-7.1-4.01ZM59.4,241.1c.38.06.77.12,1.15.18.48-.59,1.1-1.11,1.42-1.78,5.19-10.57,13.27-17.6,24.72-20.81,1.91-.53,3.87-2.04,5.09-3.64,6.26-8.16,8.75-17.44,7.25-27.66-.89-6.12-4.41-8.99-10.56-8.92-6.44.07-10.98,3.25-14.18,8.64-.91,1.54-1.89,3.05-3.24,5.23-.92-3.5-1.53-5.79-2.39-9.06-3.12,2.18-5.85,3.5-7.81,5.56-4.9,5.16-2.33,13.59,4.36,15.64,3.69,1.13,6.74,3.22,8.53,8.38-3.64-1.44-5.82-3.05-7.89-2.92-2.21.14-6.11,1.83-6.18,3.01-.51,9.36-.28,18.76-.28,28.15ZM259.53,192.22c-1.12-1.68-1.88-2.52-2.3-3.51-2.12-4.93-5.97-7.79-10.88-9.54-7.9-2.81-13.88,1-14.9,9.24-1.09,8.83.95,16.97,5.68,24.22,1.82,2.8,5.08,5.31,8.23,6.46,7.74,2.81,14.33,6.88,19.1,13.62,1.88,2.66,3.5,5.52,5.23,8.29.48-.06.97-.12,1.45-.18,0-9.34.21-18.7-.29-28.01-.06-1.07-4.08-2.59-6.32-2.69-2.18-.1-4.42,1.34-7.15,2.28.96-5.89,5.26-6.62,9-8.21,1.94-.82,4.54-2.03,5.15-3.68,2.79-7.56-1.15-13.97-9.9-16.22-.6,2.29-1.21,4.58-2.09,7.92ZM57.94,177.62c-5.42-1.34-5.09-5.56-5.06-9.65h-31.29c-.2,7.49-.36,7.76-5.44,9.32.15-1.58.75-3.2.28-4.38-.38-.94-2.06-1.37-3.17-2.02-1.27,2.58-3.97,5.49-3.48,7.68.77,3.42,7.99,5.36,10.21,3.29,4.28-4.01,9.32-5.67,14.96-5.49,5.88.19,12.31-.89,16.96,3.9,4.05,4.17,7.36,2.71,11.18-.09,2.2-1.61,2.98-3.26,1.12-5.29-1.54-1.68-3.53-2.94-5.32-4.39-.18,1.9-.35,3.81-.54,5.71-.03.31-.17.61-.41,1.42ZM277.76,167.86c-.22,4.11.75,8.83-5.78,9.58.38-1.59.97-2.83.86-4-.1-1.05-.97-2.02-1.51-3.03-1.3.89-2.99,1.51-3.8,2.73-1.01,1.52-2.25,3.9-1.71,5.25,1.67,4.22,8.45,5.4,12.03,2.51,7.47-6.02,23.18-6.26,30.69-.47,4.33,3.34,8.85,2.95,12.12-1.5.71-.96.35-3.45-.44-4.58-1.11-1.59-3.09-2.59-4.7-3.83-.35,1.58-.73,3.15-1.06,4.73-.15.73-.23,1.48-.36,2.41-5.49-1.46-4.94-5.8-5.08-9.8h-31.26ZM263.38,474.55h59.24c.39-4.87-1.18-6.93-5.69-6.99-6.65-.09-13.3-.02-19.95-.02-8.31,0-16.63-.15-24.94.08-3.87.11-8.38,0-8.66,6.93ZM37.28,475.21c6.99,0,13.99.25,20.96-.12,3.01-.16,8.27,2.22,8.54-2.73.29-5.29-5.29-4.18-8.83-4.8-.97-.17-1.99-.02-2.99-.02-12.65,0-25.29,0-37.94.02-1.65,0-3.67-.36-4.88.42-1.83,1.19-3.1,3.24-4.61,4.93,1.6.77,3.18,2.15,4.79,2.2,8.31.22,16.64.1,24.96.11ZM84.77,172.82c1.27.17,2.17.31,3.08.4,12.86,1.3,16.61,5.46,16.74,18.42.09,8.51-2.07,16.35-6.31,23.74-.68,1.18.03,3.15.1,4.75,1.26-.51,3.12-.65,3.69-1.58,7.06-11.43,10.82-23.7,6.97-37.06-2.99-10.37-15.74-14.9-24.28-8.68ZM246.48,172.78c-12.25-6.64-23.02.84-25.04,8.65-3.38,13.03-.13,24.96,6.33,36.23.73,1.28,3.09,1.62,4.69,2.4-.09-1.64.31-3.52-.34-4.89-3.16-6.61-6.05-13.1-5.93-20.78.28-17.36,2.64-20.22,20.3-21.61ZM316.83,459.31c-15.81-2.08-31.59-1.73-47.93-.43,3.64,5.08,43.3,5.53,47.93.43ZM60.98,459.36c-15.76-.24-31.55-3.16-47.24.3,4.93,3.96,43.62,3.78,47.24-.3ZM269.1,362.01c-5.46,3.34-5.37,34.83,0,42.68v-42.68ZM61.51,361.51v43.74c5.03-8.36,5.3-39.15,0-43.74ZM62.08,303.57c-.48.03-.96.06-1.44.08,0,9.05-.18,18.1.17,27.14.06,1.63,2.3,3.17,3.53,4.75.54-.29,1.08-.59,1.62-.88,1.92-10.74-.56-20.96-3.88-31.09ZM269.82,302.79c-4.9,8.2-7.07,25.2-4.01,33.73,1.72-2.67,3.79-4.41,3.86-6.22.35-8.72.16-17.45.16-27.5ZM310.16,160c-4.47-3.27-28.9-3.5-33.16-.54,3.39,3.37,26.9,3.94,33.16.54ZM54.8,160.77c-5.7-4.79-30.92-4.24-33.72.61,11.24.89,21.99,1.61,33.72-.61ZM277.9,191.47c10.76-8.99,20.89-9.25,31.13-.23-.93-6.12-5.32-9.55-11.64-9.76-13.26-.42-17.77,1.64-19.49,9.99ZM21.05,191.56c11.25-9.71,21.54-8.56,32.19.16-2-6.95-6.41-10.1-12.85-10.25-12.13-.27-16.63,1.75-19.34,10.08ZM35.92,92.37c-.43-.55-.85-1.1-1.28-1.64-1.76,1.03-4.12,1.67-5.1,3.2-.8,1.26.04,3.57.15,5.41l1.94.21c1.43-2.39,2.86-4.78,4.29-7.17ZM302.99,95.76c-2.33-1.91-4.18-3.45-6.13-4.86-.08-.06-1.73,1.57-1.6,1.77,1.38,2.25,2.97,4.36,4.51,6.52.81-.86,1.61-1.72,3.22-3.43ZM224.7,29.58c.36-.69.73-1.38,1.09-2.07-1.66-1.29-3.17-2.96-5.05-3.7-.83-.32-2.4,1.25-3.64,1.96.06.49.13.97.19,1.46,2.47.78,4.94,1.56,7.41,2.34ZM105.29,28.16c.36.59.72,1.18,1.08,1.77,2.25-1.23,4.49-2.47,6.74-3.7-.66-.81-1.26-2.25-1.99-2.33-3.19-.33-5.28,1.12-5.83,4.26ZM70.41,52.45c-.14-.72-.28-1.43-.43-2.15-1.6.32-3.63.15-4.69,1.08-1.25,1.11-1.67,3.16-2.44,4.81.51.31,1.01.61,1.52.92,2.01-1.55,4.03-3.11,6.04-4.66ZM261.39,50.21c-.47.47-.94.93-1.41,1.4,2.08,1.76,4.15,3.52,6.23,5.27,1.26-5.27-1-6.78-4.83-6.67Z"/><path d="M129.85,473.66c-5.16-5.42-7.92-11.23-6.06-19.25,1.87-8.03,2.27-16.41,3.23-24.65.79-6.77-.84-12.9-3.42-19.31-9.86-24.48-18.96-49.27-28.47-73.9-3.4-8.82-7.16-17.5-10.73-26.25-.62-1.53-1.32-3.07-1.64-4.68-1.05-5.13-1.75-10.34-2.96-15.43-1.26-5.35.09-7.23,5.49-6.84,1.33.1,2.66.24,3.98.2,7.64-.24,7.38-.21,8.64,7.09,3.89,22.55,10.11,44.48,18.02,65.94.32.87,1.06,1.58,2.5,3.67,4.02-8.8,7.46-16.79,11.31-24.57,1.51-3.05,3.68-5.88,5.99-8.42,5.18-5.69,5.56-7.26,2.23-14.1-3.86-7.94-1.57-13.94,6.19-18.16,5.01-2.73,9.36-6.65,14.37-9.37,3.84-2.09,8.17-3.4,12.41-4.58,6.49-1.79,13.09-3.17,19.88-4.77q-.19,6.65-16.04,19.42c1.47,1.72,3.55,3.22,4.26,5.21,1.07,3.01,2.45,6.85,1.44,9.47-1.9,4.89.03,7.7,3.27,10.29,5.02,4,10.26,7.75,15.69,11.82-1.29,1.6-2.39,2.97-3.89,4.83,2.88,3.96,5.86,8.05,9.09,12.48-6.13,2.07-4.45,5.88-2.66,9.88,3.25,7.25,6.36,14.56,9.52,21.85-.21.55-.42,1.09-.63,1.64-7.45-1.26-14.9-2.52-22.73-3.84.19,1.19.13,2.2.5,3,7.05,15.07,13.96,30.24,26.87,41.54,2.38,2.08,4.49,4.46,6.73,6.7,1.85,1.85,4.16,3.32,2.45,6.74-.45.9.77,3.13,1.8,4.2,3.46,3.6,7.13,6.98,10.8,10.37,2.6,2.41,2.97,4.3-.18,6.83-7.16,5.78-14.57,7.14-23.18,3.36-4.35-1.91-9.15-2.94-13.84-3.86-2.25-.44-4.72.28-8.08.56,1.3,3.19,2.19,5.42,3.1,7.63,2.86,6.99,1.39,8.8-5.05,8.01-.7-3.53-1.13-6.63-1.96-9.63-.93-3.37-3.36-4.73-6.85-4.3-5.39.65-9.69-1.66-12.31-6.04-7.48-12.53-14.71-25.21-21.71-38.02-1.51-2.77-1.62-6.31-2.37-9.49.55-.25,1.11-.5,1.66-.75,2.62,4.63,5.13,9.32,7.87,13.88,6.25,10.38,12.62,20.68,18.92,31.02,2.33,3.83,5.63,4.93,9.84,3.72,12.22-3.54,24.06-2.19,35.52,3.01,4.97,2.25,8.98,1.17,12.87-2.99-6.32-6.05-10.67-14.75-22.25-12.41.2-.48.4-.96.6-1.44,2.63-1.6,5.26-3.19,7.25-4.39-8.81-12.28-18.34-23.75-25.79-36.45-7.46-12.72-14.52-26.07-15.65-42.75,4.25,5.43,6.94,10.68,11.19,13.79,4.29,3.14,10.14,4.16,15.3,6.11.34-.48.68-.96,1.03-1.44-1.56-3.38-3.81-6.62-4.56-10.17-2.24-10.64-8.53-16.23-19.05-18.59-4.12-.92-7.22-2.25-9.64,1.82-8.24-5.59-16.23-11.16-24.4-16.44-1.61-1.04-4.63-2.02-5.79-1.23-2.73,1.85-5.9,4.33-4.17,8.56,1.51,3.69,3.36,7.23,4.93,10.9.71,1.67,1.09,3.48,1.62,5.23-.41.23-.83.47-1.24.7-2.73-2.96-5.45-5.92-8.24-8.94-8.33,6.72-8.64,15.21-6.52,24.85-1.97-1.5-3.93-2.99-6.87-5.23-.72,15.93,3.57,29.37,11.56,42.1,1.13-7.37,2.27-14.73,3.4-22.1.73.03,1.45.06,2.18.09,0,4.79,0,9.58,0,14.38,0,4.5.05,9,0,13.5-.03,2.31.92,5.05-2.71,5.97-.6.15-.86,2.31-1,3.57-1.26,11.39-2.51,22.78-3.6,34.19-.13,1.35.4,3.14,1.29,4.15,3.13,3.59,3.09,6.8-.55,10.56ZM146.92,300.05c-.53-.12-1.07-.24-1.6-.36-1.26,2.49-3.63,5.04-3.51,7.47.18,3.97,3.59,6.63,7.46,6.9,6.58.46,13.29.67,19.8-.17,2.35-.3,5.3-3.58,6.05-6.09.49-1.64-1.97-5.13-3.98-6.35-3.81-2.32-3.82-4.93-1.63-7.79,1.67-2.17,4.11-3.76,6.28-5.51,1.36-1.09,2.86-1.99,4.3-2.98-.25-.5-.49-1.01-.74-1.51-5.8,2.15-12.22,3.38-17.24,6.72-5.06,3.38-8.73,8.85-13.4,13.81-.8-1.83-1.3-2.99-1.81-4.14ZM163.78,327.61l-.85,1.14c-5.31-3.11-10.62-6.22-15.93-9.33.76,13.5,14.83,13.2,20.44,21.69,1.84-1.5,3.09-2.51,4.19-3.41,3.74,1.66,7.17,3.37,10.73,4.73,3.44,1.31,7.01,2.28,10.34,3.33-.54-13.88-10.07-19.98-19.55-26.1-.36.25-.72.5-1.07.75,2.45,3.4,4.9,6.79,7.35,10.19-.34.36-.68.72-1.01,1.07-5.67-3.84-11.33-7.69-17-11.53-.3.37-.61.74-.91,1.11,1.09,2.12,2.18,4.24,3.27,6.36ZM112.55,371.17l1.67-.34c-.19-1.26-.21-2.56-.59-3.76-3.69-11.88-7.6-23.69-11.12-35.61-2.65-8.98-4.81-18.11-7.22-27.28-.76.26-2.15.75-3.89,1.36.79-5.88,1.5-11.24,2.22-16.6-.69-.13-1.37-.26-2.06-.4-1.36,5.13-2.78,10.25-4.03,15.4-.16.65.55,1.51.85,2.28,5.01,12.78,10.16,25.51,14.98,38.36,3.3,8.78,6.14,17.72,9.18,26.59Z"/><path d="M119.7,164.21c-7.42-.33-14.89-6.44-16.77-13.01-2.95-10.32-2.79-10.09-11.56-3.98-4.73,3.29-10.05,5.76-15.22,8.37-1.46.74-3.31.69-5.29.1,7.4-5.79,15.36-11.01,22.06-17.52,6.59-6.4,11.91-14.11,18.01-21.52,5.17,4.16,10.73,8.8,16.48,13.21,5.93,4.55,6.26,4.58,11.82-.43,8.95-8.07,16.74-17.13,22.24-27.98.95-1.87,2.15-3.62,3.85-6.43,1.66,2.66,2.96,4.45,3.96,6.38,5.46,10.49,10.97,20.89,19.79,29.16,8.72,8.17,9.87,8.31,17.17-1.06,3.33-4.28,6.25-8.87,9.92-14.13,11.56,16.88,24.5,31.4,41.72,41.69-12.84.16-20.55-8.94-29.36-16.21-3.67,2.8-5.02,6.19-5.11,10.45-.14,6.83-4.94,12.45-11.68,14.18-.16-.27-.52-.68-.45-.79,4.44-6.69,6.52-14.26,8.91-21.84,2.78-8.79,3.24-9.33-3.82-16.58-2.97,3.49-5.87,6.97-8.85,10.37-7.37,8.42-9.42,9.14-17.67,1.49-7.11-6.59-12.79-14.71-19.06-22.2-1.12-1.34-1.99-2.9-3.63-4.05,1.28,6.27,3.04,12.49,3.68,18.83.4,3.94.11,8.59-1.68,11.96-3.11,5.84-2.68,10.88-.06,16.53,2.86,6.16,5.22,12.56,7.69,18.9.58,1.5.72,3.16,1.32,5.94-3.25-.9-5.9-1.15-8.05-2.33-7.87-4.3-15.71-8.69-23.26-13.52-2.5-1.6-4.24-4.53-6.04-7.05-1.14-1.6-2.13-3.49-2.53-5.39-3.16-14.96-14.9-22.35-26.25-30.11-7.56,6.55-7.9,9.7-5.36,18.79,1.76,6.29,5.03,11.03,9.57,15.31,1.17,1.1,2.01,2.56,3.47,4.47ZM169.76,174.92c-2.64-6.33-4.72-11.37-6.84-16.39-2.33-5.51-2.48-10.79.71-16.17,5.74-9.67.16-18.37-2.03-28-6.58,6.76-12.19,13.08-18.43,18.71-4.28,3.86-4.77,7.19-3.26,12.87,4.09,15.4,15.22,22.78,29.85,28.99Z"/><path d="M139.39,225.27c1.94,19.38-7.93,34.17-18.92,48.34-4.05,5.22-8.25,10.71-14.74,13.27-.39-.32-.77-.65-1.16-.97,2.34-3.23,4.53-6.58,7.06-9.65,8.7-10.61,16.65-21.7,20.84-34.92,1.22-3.84,1.38-8.13,1.33-12.21-.02-1.56-2.38-4.55-2.97-4.38-2,.56-4.58,1.86-5.31,3.58-1.32,3.07-1.47,6.65-2.12,10.06-4.08-3.41-5.1-10.35-2.36-15.69,3-5.85,9.01-8.61,15.47-7.11,6.53,1.52,11.26,7.98,11.46,15.71.32,11.95-3.09,22.98-8.47,33.47-6.27,12.22-13.95,23.45-24.13,32.79-2.07,1.9-4.57,3.34-6.88,4.99-.41-.43-.83-.85-1.24-1.28,1.7-2.23,3.36-4.49,5.12-6.68,10.35-12.84,20.32-25.89,26.35-41.52,2.89-7.48,4.09-15.06,3.45-22.97-.14-1.67-.9-3.29-1.38-4.94-.47.04-.93.08-1.4.12Z"/><path d="M113.98,456.24c-3.23-2.85-6.89-5.34-9.61-8.6-10.03-12.02-15.59-26.24-18.57-41.38-3.55-18.01-4.64-36.22-1.36-54.43.55-3.05,2.37-5.88,4.58-8.72-4.33,40.54-1.61,79.11,27.43,111.48-.82.55-1.65,1.11-2.47,1.66Z"/><path d="M184.86,424.44c-11.4-2.73-31.5-33.04-30.4-44.77,10.04,14.79,19.99,29.44,30.4,44.77Z"/><path d="M153.83,473.88c-8.58-7.4-10.03-17.8-11.54-28.19,5.89,8.51,9.88,17.84,11.54,28.19Z"/><path d="M81.71,335.54c1.26-3.18,2.52-6.35,4.25-10.7,3.38,6.24.27,8.77-2.79,11.31-.49-.2-.97-.41-1.46-.61Z"/></g></svg>