<?xml version="1.0" encoding="UTF-8"?><svg id="Layer_2" xmlns="http://www.w3.org/2000/svg" viewBox="0 0 104.51 69.07"><g id="Layer_1-2"><path d="M104.04,42.22c-.39,2.23-.82,4.16-1.31,5.8-.97,2.42-1.69,4.01-2.18,4.79-.49.78-.97,1.4-1.45,1.89l-1.16,1.45c-.78.87-1.69,1.65-2.76,2.32l-2.18,1.45-2.18,1.31-2.61,1.31-2.61,1.02c-1.74.68-3.68,1.36-5.8,2.03-2.9.68-5.08,1.16-6.53,1.45-2.23.49-4.55.87-6.96,1.16l-2.9.29-.87.14c-2.61.29-5.18.44-7.69.44h-4.06l-3.77-.15-3.77-.14-3.77-.44c-1.65-.1-3.43-.34-5.37-.73l-1.6-.29c-7.35-1.35-13.25-3.19-17.7-5.51l-2.32-1.31-2.03-1.31c-1.55-.87-2.9-1.98-4.06-3.34-2.03-2.22-3.48-4.64-4.35-7.25-.39-1.16-.73-2.34-1.02-3.55-.29-1.21-.49-2.3-.58-3.26l-.29-3.63c-.1-2.22-.15-3.43-.15-3.63,0-1.74.1-3.92.29-6.53.29-2.13.68-4.01,1.16-5.66.58-2.13,1.5-4.3,2.76-6.53.29-.48.68-1.02,1.16-1.6,1.45-1.64,2.76-2.85,3.92-3.63l2.18-1.45c.58-.39,1.35-.82,2.32-1.31l2.47-1.31,2.61-1.02c.87-.38,1.84-.72,2.9-1.02,2.9-.97,4.93-1.55,6.09-1.74l2.32-.58,1.02-.14c2.42-.58,4.79-.97,7.11-1.16l3.63-.44,3.77-.29,2.76-.15h5.8c1.16,0,2.27.05,3.34.15l3.63.15,3.77.43,3.48.44c5.32.97,8.71,1.65,10.16,2.03,2.8.87,4.74,1.5,5.8,1.89l2.76,1.02,2.47,1.16c.87.39,1.69.82,2.47,1.31l2.03,1.31c.48.29,1.16.78,2.03,1.45,2.42,2.03,4.26,4.38,5.51,7.04,1.26,2.66,2.08,6.02,2.47,10.08.48,4.84.44,9.43-.15,13.78ZM102.08,41.72c.14-1.21.26-2.63.36-4.28v.29l-.14-.43c0,.19.05-1.11.14-3.92-1.36,4.93-2.56,8.27-3.63,10.01l1.31-4.35c-2.13,3.29-3.58,5.85-4.35,7.69-.1,0-.19-.05-.29-.14l.15-.44c.38-.19.73-.77,1.02-1.74.29-.97.29-1.64,0-2.03-.58.39-1.5,1.45-2.76,3.19-.97,6.29-4.16,11.42-9.58,15.38l-.43.15c-.1.1-.2.15-.29.15,3.19-2.42,5.85-5.85,7.98-10.3,1.06-2.32,1.6-4.25,1.6-5.8l-.44-.29c-1.07.49-2.08,2.08-3.05,4.79.29-.19.58-.39.87-.58h.15c-.39.49-.82.87-1.31,1.16-.78.39-2.15.9-4.14,1.52-1.98.63-3.46,1.23-4.42,1.81-1.65,1.94-2.71,3.53-3.19,4.79-2.32,2.71-4.89,4.74-7.69,6.09l-.44.15h-.44c3.68-1.84,6.87-4.84,9.58-9,1.45-2.13,2.18-3.77,2.18-4.93,0-.48-.1-.82-.29-1.02-1.16.1-1.94.44-2.32,1.02,0,.29-.24.87-.73,1.74-.78,1.16-1.6,1.98-2.47,2.47-.1-.1-.19-.15-.29-.15l-.14-.43c.29-.19.58-.24.87-.15.97-.87,1.55-1.89,1.74-3.05-.29-.29-.63-.44-1.02-.44-1.45,0-3.39,1.55-5.8,4.64l-.15.29-2.03.29c1.74-1.64,2.32-2.95,1.74-3.92-.87,0-2.32,1.11-4.35,3.34-.39.49-1.02.87-1.89,1.16l-.58-.14c0-.19.05-.39.14-.58,1.16.1,2.03-.43,2.61-1.6.19-.48.29-.87.29-1.16,0-.38-.2-.58-.58-.58-.58,0-1.74.29-3.48.87-.68,1.84-1.94,3.05-3.77,3.63-.2-.09-.34-.14-.44-.14l-.29-.58c.38-.09.77-.05,1.16.15,1.55-.97,2.22-1.98,2.03-3.05-.29-.1-.63-.15-1.02-.15-.97,0-2.1.27-3.41.8-1.31.53-2.01.9-2.1,1.09-2.9,5.42-7.21,8.85-12.91,10.3l-.44.14-.44-.14c3.38-.97,6.67-3.19,9.87-6.67,2.13-2.32,2.95-4.11,2.47-5.37-2.23-.48-3.7-.1-4.42,1.16-.73,1.26-1.38,2.32-1.96,3.19-1.74,2.32-4.06,4.21-6.96,5.66-1.26.58-2.47,1.02-3.63,1.31l-.43.14-.29-.14c4.45-1.26,8.12-4.16,11.03-8.71l.14-.44c-1.65.68-3.19,1.07-4.64,1.16-1.07,0-1.79-.34-2.18-1.02-1.26.29-2.47.44-3.63.44-.78-.1-1.36-.39-1.74-.87-.68-1.35.09-2.37,2.32-3.05-1.26-.19-2.13-.15-2.61.15-.29,1.26-1.74,2.27-4.35,3.05,1.45-.1,2.47.1,3.05.58,0,1.26-1.07,2.44-3.19,3.55-2.13,1.11-4.45,1.72-6.96,1.81h-1.02l-.29-.15c3.09-.19,5.66-.92,7.69-2.18,1.64-.97,2.51-1.89,2.61-2.76-.87-.48-2.52-.53-4.93-.14h-.15c-.1-.1-.2-.15-.29-.15,4.45-1.06,6.53-2.37,6.24-3.92-2.23-.87-4.31-.43-6.24,1.31-.39.19-.87.34-1.45.43-.19-.19-.34-.34-.44-.43v-.44c.77.19,1.31.19,1.6,0,.58-.48.92-1.06,1.02-1.74.09-.68-.24-1.06-1.02-1.16-.78-.09-1.69.29-2.76,1.16-1.07.87-1.94,1.31-2.61,1.31-.1-.09-.24-.34-.43-.73,0-.09.09-.14.29-.14.19.1.29.19.29.29.48.1.94-.15,1.38-.73.44-.58.6-1.06.51-1.45-.68-.77-1.4-1.16-2.18-1.16-1.16,0-2.32.73-3.48,2.18l-.15.15-1.31-.58c.87-.87,1.31-1.6,1.31-2.18,0-.77-.78-1.35-2.32-1.74-1.94,3.97-3.58,6.43-4.93,7.4-.58.29-.97.49-1.16.58h-.15c1.45-2.03,2.61-3.48,3.48-4.35.39-.87.58-1.55.58-2.03-.68.1-1.28.03-1.81-.22-.53-.24-.94-.7-1.23-1.38l-.15-.29c0-1.16.24-1.98.73-2.47.48,0,.92.05,1.31.14l.29.29-.29.44-.44-.44c-.2.1-.34.15-.44.15-.39.29-.58.73-.58,1.31.19,1.16.58,1.74,1.16,1.74s2.08-1.23,4.5-3.7c2.42-2.47,4.3-3.75,5.66-3.84h.44l.14.29c-2.42.29-4.21,1.4-5.37,3.34-.49.77-.87,1.69-1.16,2.76,1.74.39,2.71.92,2.9,1.6,0,.29-.05.58-.15.87,1.16-.19,2.42-.29,3.77-.29.87,0,1.5.44,1.89,1.31,1.06-.09,2.08-.09,3.05,0,.68.1,1.16.44,1.45,1.02-.1.39-.2.78-.29,1.16,1.45-.58,2.9-.82,4.35-.73.58,0,1.21.2,1.89.58.77-.1,2.56,0,5.37.29l1.02.14c4.84.49,8.27.58,10.3.29v.14l-.15.44c.97-.19,2.08-.29,3.34-.29h.73c.39.39.53.87.44,1.45,1.64-.58,3.29-1.11,4.93-1.6,1.06-.39,1.84-.19,2.32.58,1.26-.48,2.51-.92,3.77-1.31.68-.19,1.21-.09,1.6.29,2.03-.67,3.43-.92,4.21-.73l.15.44c.09.39.09.73,0,1.02,1.64-1.06,3.09-1.93,4.35-2.61.77-.29,1.4-.29,1.89,0,.97-.48,2.08-.92,3.34-1.31l.87.14v1.16c1.16-.97,2.37-1.89,3.63-2.76l.87-.44c.58.29,1.55-.09,2.9-1.16l.44-.29c.48-.19.92-.24,1.31-.14.58-.48,1.26-.97,2.03-1.45l.72.14v1.16c.68-1.06,1.45-2.13,2.32-3.19l.29-.43h.58l.29.43c1.26-3.38,2.42-6.62,3.48-9.72l.29-.29.15.58c0,.68-.1,1.31-.29,1.89h-.44c.1-.58.19-1.11.29-1.6l.15-.15c-.1,0-.15-.05-.15-.14-.68,2.81-1.11,4.93-1.31,6.38,1.45-1.64,2.32-3.24,2.61-4.79.09-.58.14-.97.14-1.16v-1.16c-.2-5.13-1.07-9.38-2.61-12.77-1.55-3.39-4.45-6.29-8.71-8.71-1.45-.87-3-1.64-4.64-2.32-2.03-.87-4.55-1.74-7.54-2.61l-.87-.29c-4.16-1.16-9.82-2.08-16.98-2.76-1.94-.19-4.45-.29-7.55-.29-3.1-.1-5.66-.05-7.69.14-3.19.2-5.66.39-7.4.58-3.48.58-5.76.97-6.82,1.16-2.13.49-3.24.73-3.34.73l-1.6.44-2.03.58c-1.94.58-3.58,1.14-4.93,1.67-1.36.53-3.02,1.33-5.01,2.39-1.98,1.07-3.46,1.94-4.43,2.61-.97.68-2.06,1.69-3.26,3.05-1.21,1.36-2.2,3.07-2.97,5.15-.78,2.08-1.36,4.67-1.74,7.76-.19,2.13-.29,4.21-.29,6.24,0,1.36.02,2.56.07,3.63.05,1.07.15,2.18.29,3.34.14,1.16.36,2.27.65,3.34.39,1.55.68,2.61.87,3.19.48,1.65,1.16,3,2.03,4.06,1.64,2.32,3.43,4.09,5.37,5.3,1.93,1.21,3.38,2.06,4.35,2.54,2.51,1.26,5.2,2.35,8.05,3.26,2.85.92,5.97,1.67,9.36,2.25,3.39.58,6.82,1.02,10.3,1.31,1.74.1,4.25.19,7.54.29-.49,0,.82,0,3.92,0,2.22,0,4.74-.15,7.54-.44,2.03-.19,3.24-.34,3.63-.44,3.48-.48,5.75-.82,6.82-1.02,3.58-.87,5.71-1.4,6.38-1.6,3-.87,4.88-1.5,5.66-1.89,1.26-.48,2.13-.82,2.61-1.02,1.64-.77,3.14-1.6,4.5-2.47,2.42-1.55,4.3-3.17,5.66-4.86,1.35-1.69,2.42-3.65,3.19-5.88.68-2.61,1.09-4.52,1.23-5.73ZM4.28,40.27c.73,2.27,1.86,3.8,3.41,4.57-1.94-.39-3.17-1.67-3.7-3.84-.53-2.18-.94-3.46-1.23-3.85.29-.19.8.85,1.52,3.12ZM7.69,44.4c-2.03-.68-3-2.9-2.9-6.67.1-2.51-.29-4.25-1.16-5.22,1.45.68,2.13,2.56,2.03,5.66-.1,3.39.58,5.47,2.03,6.24ZM5.66,22.2c-.87-6.38,4.69-11.61,16.69-15.67.39-.19.97-.39,1.74-.58l1.89-.58c.58-.19,1.26-.39,2.03-.58,6.67-1.64,13.93-2.56,21.76-2.76,9.29-.19,18.62.87,28,3.19,13.25,3.29,20.31,8.27,21.18,14.95.77,6.29-4.74,11.46-16.54,15.53-8.42,2.81-17.65,4.31-27.71,4.5-12.29.29-23.12-1.21-32.5-4.5-10.35-3.58-15.87-8.08-16.54-13.49ZM9.72,28.73c4.55,4.16,11.7,7.21,21.47,9.14,7.64,1.55,15.48,2.23,23.51,2.03,10.45-.19,19.64-1.69,27.57-4.5,11.7-3.96,17.17-9.04,16.4-15.24-.87-6.58-7.93-11.46-21.18-14.66-9.48-2.32-18.72-3.38-27.71-3.19-7.35.19-14.22,1.02-20.6,2.47-.49.1-.97.19-1.45.29l-1.6.58c-1.45.39-2.81.78-4.06,1.16-.29.1-.68.24-1.16.43-.49.2-.94.36-1.38.51-.44.15-.85.32-1.23.51-.39.19-.63.29-.73.29-8.12,3.77-12.04,8.12-11.75,13.06.19,2.42,1.5,4.79,3.92,7.11ZM9.43,23.22c0-.29-.05-.48-.15-.58v-.58l-.14-.87.14-.87.15-.87v-.29l.29-.58.14-.58.15-.29.29-.58.15-.44.29-.29c0-.09.09-.24.29-.44l.58-.73.29-.43h.14l.44-.44.29-.44h.15l.29-.44.44-.29.58-.43.44-.29.58-.43h.15l.29-.29.58-.43,1.31-.73.44-.29c.1,0,.29-.1.58-.29l1.89-.87,2.03-.87.73-.29,1.16-.29,2.32-.87h.29c.77-.29,1.21-.44,1.31-.44l1.74-.44c.68-.19,1.31-.36,1.89-.51.58-.14,1.16-.26,1.74-.36l1.89-.29,1.89-.29,2.03-.29,2.03-.29,2.03-.14,2.18-.15,2.03-.15h2.18c14.41-.48,26.36,1.69,35.84,6.53.39.2.68.34.87.44,1.93,1.07,3.58,2.18,4.93,3.34,2.32,2.03,3.58,4.16,3.77,6.38v1.02c0,1.45-.44,2.9-1.31,4.35l-.43.58c-3.97,4.06-8.66,6.96-14.08,8.71-7.25,2.52-15.58,3.87-24.96,4.06-11.12.2-20.99-1.16-29.6-4.06-9-3-14.17-6.87-15.53-11.61ZM9.72,21.04v1.02c.19,1.26.73,2.52,1.6,3.77.19.19.44.39.73.58.68-.87,1.31-1.31,1.89-1.31.48,0,.63.44.44,1.31,0,.39-.1.82-.29,1.31.29.1.58.24.87.44.38-1.55.92-2.56,1.6-3.05,0,.39-.1.58-.29.58-.68.97-1.02,1.84-1.02,2.61.09.1.19.14.29.14.58,0,1.45-.82,2.61-2.47,1.06-4.64,3.87-9.48,8.42-14.51h.29c-3.48,5.03-5.71,8.61-6.67,10.74-.97,2.13-1.36,3.58-1.16,4.35.87-.19,1.55-.58,2.03-1.16v-.15c.19-.67.73-1.64,1.6-2.9-.68.39-1.26.82-1.74,1.31,0-.19.14-.44.43-.73.68-.48,1.31-.82,1.89-1.02,1.35-.48,2.37-.82,3.05-1.02,1.64-2.32,2.8-4.11,3.48-5.37,1.64-2.22,3.58-4.26,5.8-6.09h.44c-4.16,4.64-6.87,7.98-8.12,10.01-1.26,2.03-1.74,3.43-1.45,4.21,1.16-.29,1.93-.53,2.32-.73-.1-.19-.1-.38,0-.58,3.19-5.13,7.06-9.67,11.61-13.64l.58.15c-3,2.42-6,5.76-9,10.01.58,0,1.06.05,1.45.15.48.58.82,1.09,1.02,1.52.19.43.38.7.58.8.77.1,1.26,0,1.45-.29,1.06-1.64,1.84-2.9,2.32-3.77,1.74-2.32,3.97-4.55,6.67-6.67,1.16-.87,2.37-1.69,3.63-2.47l.44.15c-4.64,3-8.27,6.67-10.88,11.03,1.64-.87,3.19-1.45,4.64-1.74.77,0,1.31.29,1.6.87.1.39-.48,1.11-1.74,2.18.48,0,1.16-.1,2.03-.29h.29c-.1.1-.24.19-.44.29-.87.2-1.65.34-2.32.44-3.68.39-5.85.68-6.53.87-.29.1-.58.2-.87.29.29-.19.58-.43.87-.73-.68.2-1.31.34-1.89.44-.29-.09-.53-.34-.73-.73-.97.58-1.98,1.11-3.05,1.6-2.9.97-4.55,1.55-4.93,1.74-.29-.19-.39-.53-.29-1.02-.87.68-1.94,1.45-3.19,2.32-.39.1-.68.05-.87-.15-.68.49-1.65,1.07-2.9,1.74-.19-.19-.24-.53-.14-1.02-.58.68-1.31,1.45-2.18,2.32,1.55.78,3.24,1.5,5.08,2.18.39.1.77.24,1.16.44,2.03.68,4.25,1.31,6.67,1.89,6.38-1.74,13.4-2.71,21.04-2.9,9.38-.19,17.94.78,25.68,2.9,5.22-1.26,9.67-2.85,13.35-4.79-.58,0-1.14-.09-1.67-.29-.53-.19-.85-.48-.94-.87-.97-.29-1.69-.58-2.18-.87-2.03,1.36-3.48,1.94-4.35,1.74-.87-.29-1.26-.73-1.16-1.31.19-.39.68-.48,1.45-.29.38.1.67.29.87.58v.44c-.2.19-.53.24-1.02.14-.29-.09-.46-.19-.51-.29-.05-.09.02-.19.22-.29v.29c.48.58.77.53.87-.14-.39-.29-.78-.44-1.16-.44-.2.1-.29.24-.29.44,0,.58.48.78,1.45.58,1.16-.1,2.27-.63,3.34-1.6-.2-.19-.29-.44-.29-.73v-.73c-.87.19-1.89.24-3.05.14-.87-.09-1.4-.48-1.6-1.16-.1-.58.29-1.11,1.16-1.6.48-.29.82-.41,1.02-.36.19.05.34.07.43.07.1.29.15.49.15.58-.1.1-.34,0-.73-.29-.39.2-.7.44-.94.73-.24.29-.36.53-.36.73,0,.97,1.35,1.26,4.06.87.1-.39.34-.73.73-1.02l.15-.15,1.16.44c-.87.48-1.31,1.02-1.31,1.6s.63,1.07,1.89,1.45c.19-.58.63-1.11,1.31-1.6-.29-.09-.58-.19-.87-.29h-.14l-.15-.14c.39-.1.77-.05,1.16.14,1.06.68,2.18,1.5,3.34,2.47.77-.58,1.5-1.11,2.18-1.6.68-.97,1.16-1.93,1.45-2.9.09-.68.14-1.26.14-1.74v-1.02c-.39-5.9-6.72-10.35-19.01-13.35-9-2.22-17.61-3.19-25.83-2.9l-2.18.15h-2.03l-2.18.14-2.03.29-2.61.29-1.31.14-1.89.29-1.89.44-1.89.29c-.78.2-1.31.34-1.6.44l-2.32.58h-.14l-1.02.44-3.19,1.02-.29.15c-1.45.58-1.69.68-.73.29l-2.47,1.02h-.15c-.19.1-.39.2-.58.29l-.58.29c-.2.1-.39.2-.58.29l-.58.29c-.29.19-.49.34-.58.43l-.58.29-.58.44c-.1,0-.24.1-.44.29h-.14c-.1.2-.24.34-.44.44l-.29.15-.73.58-.15.15-.14.14-.44.44-.15.14-.73.58-.29.44-.29.29-.29.29v.14l-.29.29c-.1.19-.2.34-.29.43l-.29.44-.14.44-.15.44c-.1.19-.14.34-.14.43l-.15.44-.15.29-.14.87v.73ZM10.88,41.21c.19.29.29.58.29.87v.14h-.29c0-.38-.1-.67-.29-.87,0-.19.1-.24.29-.15ZM11.68,42.08c-.15.2-.27.29-.36.29.19-.68.29-1.11.29-1.31.39.1.58.24.58.44-.2.19-.36.39-.51.58ZM12.77,42.37l-.14.15c-.29-.1-.58-.05-.87.14l-.15-.14c.29-.19.53-.34.73-.44.29.1.44.2.44.29ZM13.64,27.42c.09-.29.14-.53.14-.73,0-.58-.1-.87-.29-.87-.39-.1-.82.14-1.31.73.48.29.97.58,1.45.87ZM20.89,26.84c1.45-.68,3.09-1.31,4.93-1.89l-.14.44c-1.74.58-3.39,1.21-4.93,1.89l.15-.44ZM25.32,22.85c.15-.53.36-1.09.65-1.67l-1.74.58-1.16.43c-.19.29-.43.63-.73,1.02-.58.78-.78,1.31-.58,1.6.29.19.48.29.58.29,1.84-.97,2.83-1.72,2.97-2.25ZM22.64,26.99c.09-.09.19-.14.29-.14v.44c-.1.19-.15.34-.15.43-.19.2-.34.15-.44-.14l.29-.58ZM30.76,22.2c.97-.38,1.84-.77,2.61-1.16-.49-.87-1.02-1.5-1.6-1.89-1.07,1.45-1.69,2.42-1.89,2.9.19.1.48.14.87.14ZM32.21,49.19v.15h-.29c-.1-.39-.34-.63-.73-.73.09-.19.34-.24.73-.15.29.2.38.44.29.73ZM32.79,49.33h-.29c.19-.58.34-1.02.44-1.31.58,0,.92.1,1.02.29-.39.19-.78.53-1.16,1.02ZM71.97,34.68c-6.87-1.55-14.17-2.22-21.91-2.03-6.29.1-12.09.78-17.41,2.03,6.77,1.45,14.07,2.08,21.91,1.89,6.19-.1,11.99-.73,17.41-1.89ZM34.75,48.9c-.05.1-.12.2-.22.29-.49,0-.92.1-1.31.29h-.15c.39-.29.77-.53,1.16-.72.39,0,.56.05.51.14ZM41.5,52.53c-1.94-.19-3.39-.34-4.35-.44-.87.49-1.45.92-1.74,1.31-.58.87-.34,1.55.73,2.03.67.2,1.74.1,3.19-.29-.1-.97.63-1.84,2.18-2.61ZM42.08,20.75c1.16-.67,1.74-1.35,1.74-2.03-.39-.38-.72-.58-1.02-.58-1.07.1-2.47.58-4.21,1.45-.39.39-.63.68-.73.87l-.58.87c1.55-.29,3.14-.48,4.79-.58ZM40.48,54.99c.19.87,1.16,1.16,2.9.87,1.64-.39,2.76-.68,3.34-.87.19-.39.39-.73.58-1.02l.58-1.02c-2.42-.09-4.26-.19-5.51-.29-1.26.58-1.89,1.36-1.89,2.32ZM49.77,19.88c2.71-3.67,5.9-6.72,9.58-9.14,1.06-.77,2.22-1.5,3.48-2.18l.43.29c-4.16,2.42-7.3,4.93-9.43,7.54-.68.78-1.16,1.36-1.45,1.74,1.55-.58,3-.87,4.35-.87.68,0,1.16.24,1.45.72v.29c.19.87-.34,1.55-1.6,2.03-.68.19-1.31.29-1.89.29-.39-.19-.53-.39-.44-.58.1-.1.39-.05.87.14.19.1.68,0,1.45-.29.48-.29.67-.77.58-1.45-.68-.48-1.45-.73-2.32-.73-1.55,0-2.9.82-4.06,2.47-2.9,4.16-5.9,6.96-9,8.42l-.14-.29c2.32-1.35,4.98-4.11,7.98-8.27l-3.34.72c-.58,0-.87-.19-.87-.58.19-1.06.92-1.98,2.18-2.76l1.6-.14c-1.55.78-2.27,1.69-2.18,2.76.1.1,1.02.05,2.76-.15ZM46,22.49c-.1,0-.2-.09-.29-.29l.58-.58h.29v.44c-.29.29-.48.43-.58.43ZM52.09,21.47h.43v.44c-.58.49-.87.49-.87,0l.44-.44ZM60.94,17.7c2.51.2,5.8.63,9.87,1.31l1.6.29c-1.16.58-1.74,1.21-1.74,1.89,0,.58.92.92,2.76,1.02,4.93-.68,7.3-1.6,7.11-2.76-.1-1.16-1.11-1.74-3.05-1.74-1.26,0-2.32.53-3.19,1.6.39.19.48.34.29.43l-1.02-.43c1.35-1.84,3.24-2.42,5.66-1.74,1.64.58,2.42,1.45,2.32,2.61-.29.68-1.45,1.26-3.48,1.74.58.29.87.63.87,1.02,0,1.65-3.87,2.95-11.61,3.92l-.15-.15c7.06-1.16,10.59-2.47,10.59-3.92,0-.29-.1-.58-.29-.87-1.65.29-3,.49-4.06.58-1.55,0-2.66-.09-3.34-.29-2.81,1.84-4.84,2.66-6.09,2.47-1.07-.19-1.4-.58-1.02-1.16.48-.39,1.16-.53,2.03-.44.39.1.63.19.73.29.19.2.17.41-.07.65-.24.24-.75.31-1.52.22-.29-.09-.44-.19-.44-.29l.44-.14v.14c.09.1.29.15.58.15.39-.1.58-.24.58-.44-.48-.68-1.07-.73-1.74-.14-.1.19-.19.34-.29.43,0,.39.34.58,1.02.58,1.55,0,3.34-.82,5.37-2.47-.1-.19-.2-.44-.29-.73,0-.19.05-.39.14-.58-1.45.29-3.05.53-4.79.73-.68-.09-1.16-.38-1.45-.87-1.07.2-2.32.34-3.77.44-.58-.1-.92-.39-1.02-.87.97-1.06,1.74-1.79,2.32-2.18-.58-.09-1.21-.05-1.89.15v-.15c.58-.29,1.26-.38,2.03-.29ZM61.52,17.99c-1.16.29-1.79.92-1.89,1.89,0,.58,1.21.73,3.63.44.19-.58.87-1.21,2.03-1.89-2.03-.29-3.29-.44-3.77-.44ZM65.88,18.57c-.39.19-.68.34-.87.44-.68.58-.92,1.02-.73,1.31.29.29.58.49.87.58.58.2,2.08.05,4.5-.44.09-.38.38-.82.87-1.31-2.03-.29-3.58-.48-4.64-.58ZM86.62,48.46v-.14c-.29-.29-.53-.44-.73-.44-1.07.49-2.37,1.36-3.92,2.61-.39,1.36-.63,2.13-.73,2.32l2.61-.87c.87-.29,1.35-.48,1.45-.58.67-.87,1.11-1.84,1.31-2.9ZM85.75,51.22c1.74-.58,2.8-.97,3.19-1.16,1.16-1.06,1.6-2.27,1.31-3.63,0-.29-.19-.38-.58-.29-.78.39-1.5.97-2.18,1.74-.87,1.45-1.45,2.56-1.74,3.34ZM89.96,26.84c-.58-.48-1.26-.97-2.03-1.45l-.44.44c-.68.49-.82.97-.43,1.45.19.39.82.68,1.89.87.1-.48.44-.92,1.02-1.31ZM89.38,28.15c.48-.19.92-.44,1.31-.73-.1-.09-.24-.19-.44-.29-.49.49-.78.82-.87,1.02ZM95.47,40.77l-.14.29c0-.29-.15-.39-.44-.29,0-.19.09-.39.29-.58.19,0,.29.2.29.58ZM96.35,39.03c-.2.29-.34.82-.44,1.6l-.29.15c.09-.68.22-1.23.36-1.67.15-.44.22-.56.22-.36,0,.1.05.2.15.29ZM96.42,39.47c.15-.19.27-.29.36-.29v.29c-.29.2-.53.53-.72,1.02h-.15c.19-.48.36-.82.51-1.02ZM98.52,44.55v.14c-.1.29-.14.73-.14,1.31l.58.29c1.06-.68,1.74-1.89,2.03-3.63.39-2.32.68-3.67.87-4.06.19,1.84-.17,3.75-1.09,5.73-.92,1.98-1.86,2.88-2.83,2.68-.1-.1.1-.92.58-2.47ZM98.52,44.55c.1-.39.19-.77.29-1.16-.2.68-.29,1.07-.29,1.16ZM101.13,32.79c-.2.39-.24.87-.15,1.45.1-.29.19-.63.29-1.02,0-.09-.05-.24-.14-.43ZM102.44,32.36v4.21c.1-1.35.1-2.76,0-4.21Z"/></g></svg>