<?xml version="1.0" encoding="UTF-8"?><svg id="Layer_2" xmlns="http://www.w3.org/2000/svg" viewBox="0 0 397.94 346.81"><defs><style>.cls-1{fill:#7e7e7e;}</style></defs><g id="Layer_1-2"><path class="cls-1" d="M43.18,240.71c-5.92-1.32-11.65-2.22-17.12-3.92-5.52-1.72-10.82-4.16-16.16-6.43-6.05-2.56-8.01-8.2-9.6-13.82-1.04-3.68.63-6.45,4.34-7.84,6.2-2.32,12.39-4.68,19.08-7.21-3.33-5.22-7.52-10.1-9.82-15.75-3.66-8.99-6.58-18.37-8.79-27.83-1.3-5.56,1.21-8,6.99-8.53,6.28-.57,12.61-.71,18.92-.85,6.33-.15,6.6-.53,7.41-6.64,2.16-16.22,6.4-31.53,18.55-43.65,6.94-6.92,15.77-9.61,24.55-12.66,2.33-.81,4.67-1.57,7.28-2.45-4.39-5.23-8.6-10.07-12.59-15.1-1.3-1.65-2.83-3.8-2.75-5.66.08-1.73,1.89-4.47,3.42-4.85,6.41-1.58,12.99-2.5,19.52-3.54,1.53-.24,3.14-.04,4.97-.94-12.38-4.64-24.77-9.28-37.15-13.92,16.42.88,30.47,9.37,46.39,14.89-1.02-3.95-1.9-6.72-2.43-9.55-.6-3.19.74-4.69,4.17-5.25,11.66-1.9,22.86.17,33.97,3.27,5.8,1.62,13.59-.9,16.21-6.32,2.95-6.09,7.61-9.64,13.92-10.91,4.77-.96,8.15-2.71,8.24-8.42-.75.57-1.4,1.07-1.99,1.52-4.77-5.78-9.5-11.51-14.23-17.24.36-.38.73-.75,1.09-1.13,6.48,5.86,12.95,11.71,19.43,17.57-.47.23-.93.45-1.4.68.09,1.61.17,3.22.22,4.18,4.49-2.59,8.28-4.64,11.93-6.92,3.28-2.05,6.91-3.87,9.5-6.63,7.63-8.13,17.05-10.62,27.65-7.13,3.56,1.17,7.48,1.62,11.25,1.71,11.21.26,23.73,8.85,26.96,19.6,1.03,3.43,2.68,3.88,5.33,3.28,8.97-2.03,15.96.39,22.07,7.61,3.04,3.6,7.95,5.87,12.38,7.97,7.95,3.77,11.33,10.2,7.47,18.09-3,6.11-2.02,11.47-.05,17.27.99,2.89,2.51,4.28,5.76,4.32,5.42.06,10.61-.19,15.24-3.54,1.21-.88,2.88-1.12,4.34-1.66.38.51.77,1.02,1.15,1.52-2.84,2.85-5.67,5.7-9.06,9.1,11.13,2.64,18.51-4.77,27.29-8.35-3.47,8.65-12.45,10.88-18.82,15.89,5.85,7.14,12.02,13.69,17.03,21.03,6.17,9.04,13.16,18.14,16.49,28.31,3.49,10.62,10.24,18.8,15.14,28.27.75,1.44,1.41,4.45.93,4.74-1.67.99-4.11,1.91-5.82,1.39-5.87-1.77-11.5-4.38-17.36-6.21-2.09-.66-4.58.07-6.89-.02-5.06-.19-10.14-.31-15.17-.82-3.26-.33-6.45-1.29-9.75-1.99-1.92,7.64-3.09,15.08-5.71,21.96-2.54,6.68-6.58,12.8-10.23,19.67,2.96,1.29,6.57,2.82,10.14,4.44,1.81.82,3.64,1.67,5.31,2.75,3.71,2.39,4.26,6.25.56,8.44-15.52,9.19-24.69,25.12-38.66,35.92-.91.7-1.11,3.06-.81,4.47.99,4.69,2.66,9.25,3.5,13.96,1.34,7.52-1.16,9.99-8.59,10.91-10.91,1.36-21.76,2.92-32.6-.09-3.81-1.06-7.81-2.02-11.18-3.96-3.14-1.82-5.49-1.99-8.71-.42-4.61,2.24-9.44,4.18-14.36,5.63-6.23,1.83-10.95,5.54-14.85,10.44-2.96,3.71-6.05,6.78-10.93,8.15-2.19.61-4.44,3.13-5.5,5.35-5.44,11.34-14.9,16.56-26.78,16.75-10.8.17-20.09,3.18-28.73,9.53-9.17,6.73-23.5,3.82-28.32-6.33-4.64-9.79-11.39-16.96-20.42-22.47-1.77-1.08-4.08-2.85-4.34-4.57-1.28-8.45-9.28-11.59-13.49-17.71-4.25-6.18-10.05-11.42-15.73-16.44-4.93-4.36-10.89-7.55-15.93-11.8-7.57-6.39-8.19-14.29-3.25-23.14ZM263.38,179.55c-.36-.33-.71-.65-1.07-.98-1.66,2.04-3.4,4.02-4.92,6.17-.3.43.14,2.06.47,2.14,2.64.63,5.51,1.8,7.98,1.27,2.31-.49,4.23-2.85,6.31-4.39,1.17-.86,2.33-1.73,3.49-2.6.49,1.52,1.86,3.74,1.31,4.42-1.69,2.1-4.2,3.51-6.21,5.38-2.3,2.14-4.59,4.34-6.53,6.79-3.69,4.66-6.9,9.71-10.8,14.18-1.44,1.65-4.26,2.09-6.45,3.08-.15-.37-.3-.73-.44-1.1,4.13-4.39,8.25-8.78,13.07-13.9-4.04-.38-7.77.38-9.24-1.1-3.65-3.68-8.09-4.17-12.56-5.24-5.41-1.29-8.32-.16-10.54,5.28-.52,1.27.37,3.87,1.49,4.8.79.66,3.22-.17,4.62-.9.95-.49,1.4-1.97,2.07-3,.48.02.95.04,1.43.06.36,1.53,1.29,3.23.91,4.54-.38,1.29-1.97,2.89-3.25,3.13-4.52.84-9.01.92-11.59-4.19-.39-.78-1.71-1.33-2.69-1.54-3.09-.67-6.22-1.14-10.04-1.81-3.94,3.5-6.11,10.53-14.02,12.47,3.21-4.7,5.79-8.48,8.21-12.02-5.01-.33-9.17-.51-13.32-.9-4.48-.41-8.5-.38-10.75,4.68-1.05,2.38-2.9,4.47-4.66,6.45-1.04,1.17-2.61,1.87-3.95,2.79-.3-.33-.59-.66-.89-1,2.29-3.49,4.9-6.82,6.79-10.52,1.87-3.64,3.03-7.66,4.5-11.51-5.09,1.21-5.05,10.56-13.11,5.53,1.76-1.03,3.2-1.58,4.21-2.57.67-.66,1.3-2.5.97-2.82-.77-.76-2.35-1.53-3.2-1.21-1.39.52-2.48,1.88-3.66,2.92-1,.87-1.95,1.79-3.51,3.23-.44-2.94-.72-4.8-1.13-7.59-1.1,1.6-1.91,2.39-2.26,3.34-1.26,3.43-3.8,4.05-6.84,3.07-7.77-2.52-14.1-.91-19.61,5.4-1.97,2.26-5.4,3.24-8.17,4.8-.24-.44-.48-.88-.72-1.32,3.41-3.25,6.81-6.51,10.22-9.76-.28-.29-.56-.57-.83-.86-4.5,3.12-9.01,6.24-13.51,9.36l-1.95-2.34c3.01-1.89,6.01-3.78,8.95-5.64-5.51-6.08-14.64-1.52-17.92-9.91-1.09,2.37-1.43,4.39-1.49,6.43-.15,5.62-4.21,9.2-9.91,8.59q7.18-7.08,3.68-14.89c1.75-.79,3.79-1.26,5.14-2.48.96-.88,1.81-3.39,1.28-4.08-.96-1.25-3.17-2.52-4.51-2.22-1.31.29-2.55,2.38-3.19,3.94-1.29,3.18-3.39,3.98-6.32,2.72-2.81-1.21-5.51-2.7-8.62-4.25,1.51-.92,2.74-1.68,4.85-2.98-9.27-1.77-14.01,2.96-16.82,8.33-.49-3.21-1.28-6.77-1.49-10.36-.1-1.76.89-3.59,1.38-5.38.46.14.91.29,1.37.43-.28,1.68-.56,3.36-.88,5.24,6.72-2.76,8.19-8.37,3.99-14,2.87-.77,5.74-1.53,9.4-2.51-.8,2.12-1.33,3.77-2.04,5.34-3.04,6.74-2.8,7.04,4.37,8.84,8.03,2.02,17.14,0,23.99,6.42.11.1.31.09.48.12,14.26,2.37,28.22,6.66,42.95,6.16,3.87-.13,6.64-.94,8.9-3.91,2.94-3.86,6.83-5.98,11.67-5.07,1.58.3,3.58,1.94,4.04,3.4.36,1.13-1.04,3.71-2.25,4.22-1.41.58-3.47-.4-5.24-.71l.18-1.34c1.02-.62,2.04-1.23,3.06-1.85-5.75-.33-8.48,3.48-11.44,7.11,7.83,1.18,15.15,2.25,22.46,3.4,2.24.35,4.43,1.19,6.66,1.31,5.97.31,11.83-5.06,17.93-.33.27.21.99,0,1.43-.17,3.34-1.33,7.7,2.07,10.37-2.27,7.86,1.45,9.48-5.65,14.94-10.36-69.09-1.87-132.46-18.01-189.46-55.52-4.46,7.85-5.74,16.31-3.01,20.93,1.17-.62,2.35-1.24,2.39-1.26,1.05,2.53,1.64,4.88,2.89,6.79,3.51,5.39,2.45,12.13-3.14,14.49.7-2.76,1.29-5.11,2.03-8.03-7.5,4.9-8.01,6.79-3.83,13.56,1.56,2.53,3.36,4.96,5.31,7.21,15.15,17.41,34.99,27.27,56.38,34.36,20.42,6.77,41.38,11.45,62.77,13.71,17.66,1.87,35.52,4.81,53.09,3.79,20.43-1.19,40.75-5.64,60.91-9.71,13.85-2.8,26.39-9.06,36.06-19.95,3.66-4.12,6.26-8.69,5.7-15.01-7.6,5.42-18.16,2.79-25.06,10.39-.77-.58-1.72-1.29-2.7-2.03q-9.47,17.08-13.19,16.55c1.82-2.93,3.67-5.85,5.45-8.81,1.59-2.64,2.76-5.08,0-8.04-1.05-1.13-.51-3.74-.7-5.67l1.61-.24c.73,1.03,1.46,2.06,2.82,3.98.79-5.37,1.43-9.71,2.06-14.04l-1.44-.44c1.64-.79,3.28-1.58,4.93-2.38-11.05.83-21.82,2.39-32.53,4.31-.94.17-1.89,2.69-2.09,4.21-.6,4.73-3.08,6.03-7.58,3.31,1.15-1.33,2.25-2.61,3.35-3.89ZM150.9,262.4c-.57,0-1.13-.01-1.7-.02-1.44,4.77-2.87,9.54-4.31,14.31-.6-3.76,0-7.35-.02-10.94-.01-1.66-.85-4.11-2.07-4.73-1.22-.62-3.76.08-5.05,1.08-3.41,2.63-6.49,5.69-9.63,8.65-8.93,8.43-18.03,16.69-26.65,25.43-4.13,4.19-3.63,8.49,1.33,11.62,9.38,5.93,16.38,13.72,22.01,23.23,4.29,7.24,7.96,7.84,14.39,2.51,9.89-8.18,21.35-11.18,33.7-11.57,16.26-.51,23.64-14.66,15.25-28.41-7.13-11.68-15.3-22.72-22.81-33.73-9.25,1.88-9.47,2.19-8.62,10.12.22,2.06.29,4.13.43,6.19-.17.03-.34.07-.51.1-1.91-4.62-3.83-9.24-5.74-13.85ZM115.4,230.06c.06-.16.12-.32.18-.47,3.29.33,6.79.08,9.83,1.13,4.96,1.71,6.99-.82,9.07-4.93-19.99-4.89-39.31-10.89-57.48-20.12-1.06-.54-3.05-.36-4.07.31-6.69,4.39-11.76,10.09-11.38,18.63.32,7.12-2.19,12.91-6.36,18.39-7.66,10.07-7.6,10.13,2.19,18.53,1.13.97,2.32,1.94,3.63,2.62,11.39,5.87,20.63,13.89,26.59,25.48.52,1.02,3.28,1.65,4.67,1.27,1.98-.54,3.84-1.99,5.42-3.41,5.8-5.24,11.55-10.55,17.17-15.99,6.03-5.83,11.89-11.82,16.89-16.82-1.59-10.58-7.38-11.16-15-8.49,2.94-1.83,5.95-2.57,8.58-4.01,1.56-.85,2.71-2.69,3.62-4.31.27-.47-.71-2.23-1.5-2.61-3.95-1.88-8.02-3.5-12.06-5.2ZM194.15,259.15c-.16.25-.32.49-.48.74-5.44-2.64-10.82-5.45-16.38-7.81-1.41-.6-3.42.25-5.16.44.36,1.56.34,3.36,1.16,4.63,1.61,2.5,3.84,4.59,5.53,7.05,7.57,11.02,17.29,20.65,21.82,33.71.3.87,3.93,1.27,5.69.76,1.51-.44,2.65-2.4,3.78-3.83,4.65-5.91,10.37-10.06,17.74-12.16,4.09-1.17,7.95-3.29,11.78-5.23,3.02-1.52,4.14-3.73,2.77-7.38-2.38-6.36-2.67-12.9-.37-19.49.75-2.14,1.09-4.59.92-6.85-.47-6.06-2.64-7.85-7.37-7.83-17.09.07-34.18-.08-51.27-.19-1.5,0-2.99-.34-4.49-.52.04.09.07.18.11.27,8.78,1.67,17.56,3.33,26.34,5-8.37.94-16.44.79-24.5,1.05-1.7.05-3.36,1.57-5.04,2.41.99,1.52,1.67,3.43,3.01,4.5,4.68,3.73,9.6,7.17,14.43,10.72ZM269.85,28.75c-.69-9.08-10.4-18.43-20.03-19.18-5.26-.41-10.61-.78-15.7-2.04-6.82-1.7-15.74.38-19.68,6.08-3.19,4.61-6.85,7.72-12.54,8.91-5.04,1.06-5.84,3.78-2.22,7.33,8.06,7.92,16.35,15.61,24.89,23.01,1.59,1.38,4.76,1.23,7.21,1.29,5.73.14,11.6-.79,17.15.2,3.49.63,5.29.19,7.04-2.47,3.47-5.28,7.07-10.47,10.41-15.82,1.42-2.28,2.33-4.87,3.48-7.32ZM217.33,70.3c4.43-4.49,5.21-8.32,1.64-11.77-8.97-8.65-18.29-16.92-27.4-25.42-5.58-5.21-18.47-1.36-21.82,3.97-2.53,4.03-6.42,7.3-10.03,10.55-2.79,2.51-4.9,8.15-3.17,10.76,3.25,4.89,7.3,9.56,1.09,16.7,23.22,3.12,44.74,6.01,66.26,8.89l.67-2.19c-2.36-1.26-4.72-2.51-7.24-3.85,1.38-.99,2.7-1.92,4.21-3-1.77-1.95-2.85-3.14-4.22-4.65ZM223.56,112c.43,1.54.73,2.78,1.21,3.95.03.08,1.8-.15,1.99-.57,2.37-5.38,6.48-3.94,10.61-2.98,1.31.31,3.47.53,3.96-.15.68-.93.7-3.13.03-4.1-1.2-1.71-2.95-3.76-4.79-4.17-9.88-2.18-19.83-4.14-29.82-5.73-34.07-5.41-68.2-5.59-102.31-.44-10.45,1.58-20.35,5.1-28.86,11.54-1.75,1.33-3.67,5-3.01,6.35,1.05,2.12,4.62,4.81,6.43,4.38,4.38-1.05,8.62-3.4,12.39-6,1.38-.95,1.23-4.07,1.85-6.18.3-1.03.76-2.02,1.06-2.78,1.71,2.23,2.87,5.17,4.98,6.22,4.76,2.35,5.14,3.69,2.71,8.57-1,2.01-.73,5.73.56,7.57,1.81,2.59,5.56,6.22,7.67,5.75,6.43-1.42,12.48-4.59,18.96-7.2-2.1-2.8-3.69-5.13-5.51-7.27-1.77-2.08-3.61-4.15-5.72-5.87-1.86-1.52-4.12-2.55-6.2-3.8.35-.51.7-1.02,1.05-1.53,1.91.88,3.76,1.94,5.75,2.61,4.86,1.62,7.85-1.63,6.37-6.92,2.45,1.14,4.33,3.42,6.69,4.16,2.64.82,6.28,1.65,7.69-2.69-1.94-.88-3.64-1.65-6.25-2.84,7.64-3.84,9.56,5.96,15.27,3.93.11.9.06,1.44.25,1.88.61,1.36,1.31,2.68,1.97,4.02.88-1.16,1.78-2.31,2.62-3.5.55-.76.98-2.25,1.52-2.28,5.04-.27,10.09-.3,15.14-.35.17,0,.35.45.65.85-.58.35-1.24.58-1.66,1.03-.84.92-1.55,1.95-2.32,2.94,1.31.04,2.93.59,3.86.02,2.76-1.69,5.24-3.82,8.07-5.96-1.95-1.53-3.59-2.82-5.24-4.11l1.15-1.61c2.41,1.63,4.83,3.25,7.21,4.91,1.26.88,2.58,2.76,3.67,2.62,5.4-.68,8.72.8,8.49,7.24.57-.11,1.15-.22,1.72-.33.13-1.83.27-3.67.39-5.35,1.91.3,3.85.85,5.8.86,4.87.03,9.74-.23,14.61-.27.56,0,1.11.67,1.7.96,1.92.92,3.86,1.81,5.64,2.64ZM259.12,58.79c1.81,1.51,2.94,2.85,4.38,3.56,6.42,3.17,7.39,9.99,9.6,15.51,1.15,2.89,2.16,4.41,4.74,5.16,7.49,2.19,14.94,4.57,22.53,6.33,10.61,2.47,17.61-4.57,14.41-14.73-1.87-5.93-.65-11.05,1.38-16.42,2.29-6.05,1.44-8.03-4.63-10.28-6.41-2.38-11.63-6.21-16.08-11.38-5.13-5.96-15.84-5.95-20.69.26-5.41,6.93-10.24,14.32-15.65,21.97ZM323.1,137.03c-4.86-7.16-10.36-13.82-17.72-18.31-16.6-10.12-34.82-16.59-53.63-20.96-16-3.71-32.27-6.39-48.54-8.71-16.42-2.35-32.95-4.34-49.5-5.31-20.21-1.18-40.07,2.89-59.77,6.84-8.72,1.75-17.37,4.51-25.55,8-7.38,3.15-7.45,6.94-1.53,12.92,10.07-11.23,23.28-16.31,37.75-18.16,11.51-1.47,23.14-2.76,34.72-2.73,19.24.06,38.59.16,57.67,2.28,17.74,1.97,35.56,5.3,52.66,10.34,25.93,7.63,51.73,16.27,73.43,33.8ZM121.85,136.07c.03.69.07,1.39.1,2.08,50.81,19.63,103.22,23.04,156.85,14.96-4.38-2.05-8.86-3.62-13.45-4.79-1.27-.32-3.12.15-4.23.93-6.12,4.29-12.74,3.69-19.65,2.9-4.52-.52-9.21,0-13.78.45-3.78.37-7.59,2.2-11.24,1.84-12.73-1.26-23.71-5.92-30.85-17.51-1.23-1.99-4.19-3.95-6.46-4.09-9.43-.58-18.93-1-28.35-.44-9.68.58-19.29,2.39-28.93,3.66ZM330.39,146.24l-.8-1.11c-.85.37-1.71.73-2.56,1.13-9.58,4.44-18.74,10.84-28.8,12.96-33.48,7.03-67.4,9.06-101.55,4.68-34.96-4.48-68.93-12.51-101.12-27.2-10.3-4.7-20.59-9.45-30.54-14.01.08.09.47.57.92.99,9,8.48,20.09,13.31,31.23,18.17,22.78,9.92,46.38,17.56,70.57,22.72,30.28,6.46,61.23,7.62,92.11,6.75,16.57-.47,33.17-2.46,48.89-8.57,8.84-3.43,15.89-9.19,21.67-16.5ZM252.06,120.14c.42.29.84.59,1.26.88-2.19,2.66-4.38,5.32-6.97,8.46-3.7-6.97-10.1-7.35-16.09-8.21-1.98-.28-4.17.91-6.27,1.43,1.26,2.19,2.21,4.67,3.89,6.47,1.12,1.2,3.24,1.64,5,2.02,4.21.92,8.45,1.85,12.73,2.35,15.29,1.77,29.97,5.35,42.99,14.02,3.09,2.05,5.48,5.42,10.11,3.12,3.29-1.64,6.97-2.49,10.48-3.7-.02-.48-.04-.95-.05-1.43-1.87-.92-3.7-1.97-5.63-2.74-2.61-1.04-6.23-1.1-7.77-2.95-3.5-4.2-5.78-2.46-9.03.01-1.48,1.12-4.58,1.66-6.08.85-2.79-1.5-4.89-4.21-5.45-8.88,3.3,2.99,5.52,5.01,7.74,7.02.64-.5,1.28-1,1.92-1.5-1.43-2.56-2.48-5.45-4.38-7.59-1.95-2.19-4.74-3.63-8.04-6.03h14.64c-1.19,1.38-2.06,2.39-3.6,4.19h5.54c-.2,1.87-.36,3.39-.52,4.91.52.14,1.05.28,1.57.42.57-2.24,1.13-4.48,1.71-6.76,3.53,1.6,6.9,3.12,10.28,4.65.26-.62.52-1.24.77-1.86-17.8-11.1-37.28-17.84-58.04-22.89.34,4.59.41,7.91.89,11.16.25,1.67,1.24,3.24,1.89,4.85,1.51-.75,3.02-1.51,4.52-2.26ZM320.36,231.33c-4.16.77-7.72,1.42-11.26,2.08-16.82,3.16-33.66,6.19-50.42,9.64-2.19.45-4.53,2.76-5.63,4.82-.55,1.02,1.1,4.03,2.53,5.16,5.17,4.08,10.94,6.47,17.82,6.78,21.95,1,34.96-12.23,46.96-28.48ZM65.49,199.07c-.7-1.19-.81-1.53-1.04-1.74-.49-.45-1.03-.83-1.56-1.24-11.65-8.89-22.03-18.68-25.14-33.96-.35-1.72-1.81-4-3.3-4.56-6.33-2.37-12.73-2.18-20.5,1.3,15.77,15.37,30.78,30,46.23,45.06,2.38-2.18,3.94-3.61,5.31-4.86ZM220.58,117.27c-4.51-.2-8.56-.38-13.75-.61,2.51,2.18,4.18,3.63,5.92,5.15-6.11,3.14-10.47,2.12-13.82-2.9-.47-.71-1.48-1.19-2.33-1.48-2.82-.96-5.64-2.17-8.56-2.56-3.55-.47-7.23.03-10.81-.31-4.68-.45-9.31-1.39-13.98-1.93-.84-.1-2.51.61-2.56,1.08-.31,2.92-.71,5.97-.12,8.78.2.96,3.15,1.8,4.89,1.91,11.6.74,23.23,1.14,34.83,1.91,6.87.46,13.7,1.38,20.29,2.06v-11.1ZM150.8,75.37c1.36-4.11-1.25-5.45-3.89-6.66-10.27-4.72-21.24-6.63-32.37-6.94-8.56-.24-17.15.82-25.72,1.3,0,.67-.02,1.34-.03,2.01,20.64,2.84,39.95,13.21,62,10.28ZM364.64,135.36l1.77-1.66c-4.81-7.53-8.98-15.58-14.6-22.45-6.7-8.21-14.58-15.54-24.78-19.49-6.26-2.42-7.2-1.92-11.4,4.66,10.75,2.81,18.69,9.72,26.3,17.16,7.5,7.33,15.13,14.53,22.7,21.79ZM251.38,236.58c.26.75.53,1.51.79,2.26,25.22-4.26,50.47-8.39,75.1-16.05-6.48-3.26-12.91-3.88-19.91-1.46-8.75,3.03-17.67,5.63-26.66,7.88-7.7,1.93-15.6,3.01-23.37,4.7-2.08.45-3.97,1.76-5.95,2.67ZM307.99,183.18c3.08-2.74,5.71-5.5,8.75-7.69,4.52-3.26,9.53-5.85,13.96-9.21,4.51-3.42,3.44-8.19,2.65-12.32-8.82,4.92-17.36,9.56-25.78,14.4-4.44,2.55-3.54,12.55.42,14.81ZM142.04,113.73c.1-.46.19-.92.29-1.38-1.45-.55-2.93-1.65-4.33-1.55-3.23.24-6.41,1.08-9.62,1.63-1.13.19-2.28.25-3.43.37.35,1.2.55,2.47,1.1,3.57.95,1.92,1.78,4.07,3.26,5.52,1.59,1.55,3.84,3.31,5.84,3.36,6.09.16,12.22-.3,18.3-.91,1.27-.13,3.47-2.09,3.34-2.92-.36-2.34-1.44-6.25-2.72-6.44-3.17-.49-6.79-2.22-10.06.92-2.25,2.16-4.94,2.08-6.67-1.42,1.77-.28,3.24-.51,4.7-.74ZM320.07,106.09c-1.75,5.85,0,9.44,3.35,12.73,8.08,7.92,16.01,16,24.05,23.96,1.28,1.26,2.8,2.28,4.2,3.41-8.13-15.17-16.19-30.19-31.6-40.1ZM194.2,132.8c6.4,13.86,22.94,16.6,40.03,8.32l.25-1.47c-13.43-2.28-26.85-4.57-40.28-6.85ZM51.03,201.26c-11.21-10.8-22.05-21.24-32.88-31.68,1.1,8.38,5.3,14.82,10.03,20.99,5.46,7.12,11.64,12.89,22.85,10.69ZM310.42,112.16c1.76-6.52-1.6-12.99-6.9-14.4-6.71-1.78-13.42-3.58-20.11-5.41-3.88-1.06-7.73-2.21-11.59-3.33-.24.53-.48,1.06-.73,1.59,12.63,7.91,25.66,15.11,39.33,21.55ZM252.1,265.86c-1.52,10,5.55,13.06,13.08,15.38,3.94,1.21,8.12,2.01,12.23,2.18,3.2.14,6.45-.98,9.68-1.54,0-.51-.01-1.01-.02-1.52-11.74-4.87-23.47-9.74-34.96-14.5ZM17.59,220.28c-.14.58-.27,1.16-.41,1.74,9.34,4.95,19.13,8.53,29.99,7.88,1.9-.12,3.67-2.33,5.51-3.58-1.76-1.39-3.42-3.81-5.3-4-9.9-.99-19.85-1.41-29.79-2.03ZM336.59,137.45c.96,2.58,2.05,5.12,2.84,7.75.81,2.7,1.47,5.46,1.97,8.23,1.48,8.13,8.58,12.25,17.3,9.38-5.58-10.05-13.67-17.75-22.11-25.37ZM121.02,76.6c-11.55-2.77-22.6-5.42-34.12-8.18,6.81,11.55,20.43,14.78,34.12,8.18ZM236.56,188.62c6.72,4.22,14.75-.32,19.9-11.14h-7.71c.25,3.76-.29,8.18-4.28,6.84-5.13-1.73-5.96,1.18-7.91,4.3ZM21.56,212.66c-.02.63-.05,1.27-.07,1.9,2.99.48,5.96,1.1,8.97,1.4,6.08.6,12.18,1.18,18.28,1.4,1.26.05,2.57-1.49,3.85-2.3-1.13-.89-2.14-2.03-3.41-2.6-.95-.43-2.23-.16-3.36-.13-2.74.08-5.48.28-8.23.31-5.34.05-10.68.01-16.02.01ZM382.33,165.49c-4.7-10.63-12.53-18.59-17.5-18.16,2.58,6.51,10.39,14.78,17.5,18.16ZM281.8,271.61c6.01,2.65,10.75,4.75,16.49,7.28-2.88-10.36-5.74-11.58-16.49-7.28ZM91.67,122.58h-3.91c.75,1.09,1.26,2.64,2.3,3.17,3.15,1.63,6.51,2.86,9.78,4.25.26-.3.52-.61.77-.91-2.51-3.79-5.03-7.58-7.54-11.37-.47.26-.93.52-1.4.78v4.07ZM145.03,58.73c.16-.47.32-.94.48-1.41-8.77-2.96-17.53-5.92-26.3-8.88-.16.48-.32.95-.49,1.43,7.55,6.53,17.89,4.88,26.31,8.86ZM140.15,250.58c3.19,2.52,6,4.95,9.36,2.1.73-.62.13-4.39-.99-5.29-3.67-2.95-5.69.45-8.37,3.19ZM257.64,66.89c0-.54,0-1.09-.01-1.63-2.04-1.11-4-2.76-6.16-3.1-1.17-.18-2.68,1.9-4.04,2.96,1.84,1.44,3.49,3.45,5.58,4.09,1.19.37,3.07-1.48,4.64-2.33ZM137.9,243.99c2.06-2.64,4.02-4.12,4.21-5.8.11-.99-2.53-3.08-4.05-3.19-1.11-.08-3.26,2.15-3.39,3.5-.13,1.39,1.63,2.95,3.23,5.49ZM246.54,83.79c-3.07-2.1-5.18-3.8-7.56-4.93-.41-.19-1.97,2.04-2.99,3.15,2.24,1.48,4.41,3.13,6.8,4.32.49.25,1.82-1.19,3.76-2.54ZM158.27,241.91c2.4,1.91-.19,6.79,4.81,6,1.39-.22,3.66-3.53,3.28-4.66-1.26-3.76-4.36-2.81-8.09-1.34ZM260.74,197.69c-.21-2.2.26-4.54-.69-5.57-1.8-1.94-7.1-.24-9.4,2.98,3.11.8,6,1.54,10.09,2.59ZM262.27,85.98c-2.94-1.86-4.71-3.25-6.72-4.03-.44-.17-2.64,2.61-2.5,2.79,1.41,1.74,3.02,3.4,4.88,4.6.38.24,2.07-1.56,4.34-3.36ZM236.58,73.72c-2.64-2.25-3.87-6.25-7.79-3.5-.74.52-.92,3.15-.29,4.07,2.4,3.52,4.97,1.52,8.08-.57ZM145.6,52.91c.21-.61.42-1.22.63-1.83-4.65-3.32-10.25-3.45-15.61-4.4-.14.42-.27.85-.41,1.27,5.13,1.65,10.26,3.31,15.39,4.96ZM243.42,65.14c-2.97-1.85-4.9-3.23-7.03-4.19-.35-.16-1.54,1.57-2.35,2.43,1.66,1.55,3.19,3.33,5.08,4.5.48.3,2.15-1.33,4.29-2.75ZM267.55,76.61c-2.4-1.78-3.73-3.19-5.37-3.77-.68-.24-2,1.29-3.03,2.02,1.09,1.48,1.93,3.37,3.38,4.24.67.4,2.54-1.2,5.01-2.48ZM247.8,71.8c-1.38,1.16-2.19,1.84-2.99,2.51,1.24,1.4,2.42,2.87,3.83,4.07.13.11,2.63-1.95,2.49-2.22-.74-1.46-1.96-2.68-3.33-4.36ZM214.06,193.82c-.15,1.02-.29,2.04-.44,3.05,1.81.32,3.66.96,5.42.77.59-.06.94-2.25,1.4-3.47-2.13-.12-4.26-.24-6.39-.36ZM125.58,189.93c1.8-1.93,3.11-3.01,3.89-4.39.19-.34-1.81-2.51-2.05-2.38-1.43.74-2.83,1.76-3.8,3.02-.27.36.93,1.85,1.96,3.75ZM116.64,187.11l1.82-.34c.6-1.87,1.2-3.75,1.8-5.62-.33-.34-.66-.67-1-1.01-1.26.86-3.15,1.49-3.6,2.66-.44,1.14.59,2.85.98,4.32ZM316.35,140.36c.24-.37.47-.73.71-1.1-3.64-2.45-7.28-4.89-10.92-7.34-.35.55-.71,1.1-1.06,1.66,3.76,2.26,7.51,4.52,11.27,6.78Z"/><path class="cls-1" d="M224.19,176.95c0,2.61.97,5.87-.19,7.91-2.83,4.95-6.68-.31-10.14-.08-.41.03-1.12-3.09-1.48-4.79-.07-.32,1.15-1.3,1.26-1.22,3.84,2.58,5.89-2.61,10.55-1.82Z"/></g></svg>