<svg width="60" height="53" viewBox="0 0 60 53" fill="none" xmlns="http://www.w3.org/2000/svg">
<path d="M6.51072 36.7905C5.61819 36.5888 4.7543 36.4512 3.92961 36.1914C3.09738 35.9285 2.29832 35.5556 1.49322 35.2087C0.58109 34.8175 0.285588 33.9555 0.04587 33.0966C-0.110927 32.5342 0.140853 32.1109 0.700195 31.8984C1.63494 31.5439 2.56819 31.1832 3.57681 30.7965C3.07476 29.9988 2.44305 29.253 2.09629 28.3895C1.54449 27.0156 1.10425 25.582 0.771055 24.1363C0.575059 23.2865 0.953482 22.9136 1.82491 22.8326C2.77172 22.7455 3.72607 22.7241 4.67741 22.7027C5.63175 22.6798 5.67246 22.6217 5.79458 21.6879C6.12024 19.2091 6.75949 16.8692 8.59129 15.017C9.63761 13.9594 10.9689 13.5483 12.2926 13.0821C12.6439 12.9584 12.9967 12.8422 13.3902 12.7077C12.7283 11.9084 12.0936 11.1687 11.492 10.4C11.296 10.1478 11.0654 9.81925 11.0774 9.53499C11.0895 9.2706 11.3624 8.85185 11.593 8.79377C12.5595 8.5523 13.5515 8.4117 14.536 8.25276C14.7667 8.21608 15.0094 8.24664 15.2853 8.1091C13.4188 7.39997 11.5508 6.69085 9.68435 5.98172C12.1599 6.11621 14.2782 7.41373 16.6784 8.25734C16.5246 7.65367 16.3919 7.23033 16.312 6.79783C16.2216 6.3103 16.4236 6.08106 16.9407 5.99547C18.6987 5.7051 20.3872 6.02146 22.0622 6.49523C22.9367 6.74281 24.1112 6.35768 24.5062 5.52935C24.9509 4.59862 25.6535 4.05608 26.6048 3.86198C27.324 3.71527 27.8336 3.44782 27.8471 2.57517C27.7341 2.66228 27.6361 2.73869 27.5471 2.80747C26.828 1.92412 26.1148 1.04841 25.4017 0.172697C25.456 0.114622 25.5118 0.058075 25.5661 0C26.543 0.895577 27.5185 1.78963 28.4954 2.6852C28.4246 2.72035 28.3552 2.75398 28.2844 2.78913C28.2979 3.03518 28.31 3.28123 28.3175 3.42795C28.9945 3.03212 29.5659 2.71882 30.1162 2.37038C30.6107 2.05708 31.158 1.77893 31.5485 1.35712C32.6988 0.114622 34.119 -0.265922 35.7171 0.26745C36.2539 0.44626 36.8449 0.515033 37.4133 0.528788C39.1033 0.568523 40.9909 1.88132 41.4779 3.52423C41.6332 4.04844 41.882 4.11721 42.2815 4.02551C43.6339 3.71527 44.6877 4.08511 45.6089 5.18854C46.0672 5.73872 46.8075 6.08564 47.4754 6.40658C48.674 6.98275 49.1836 7.96544 48.6016 9.17126C48.1493 10.105 48.2971 10.9242 48.5941 11.8106C48.7433 12.2523 48.9725 12.4647 49.4625 12.4708C50.2796 12.48 51.0621 12.4418 51.7602 11.9298C51.9426 11.7953 52.1944 11.7586 52.4145 11.6761C52.4718 11.7541 52.5306 11.832 52.5879 11.9084C52.1597 12.344 51.733 12.7795 51.2219 13.2992C52.8999 13.7026 54.0126 12.5702 55.3363 12.023C54.8132 13.345 53.4593 13.6858 52.4989 14.4515C53.3809 15.5427 54.3111 16.5437 55.0665 17.6655C55.9967 19.0471 57.0505 20.4378 57.5526 21.9921C58.0788 23.6151 59.0964 24.8652 59.8352 26.3125C59.9483 26.5326 60.0478 26.9926 59.9754 27.0369C59.7236 27.1882 59.3558 27.3289 59.0979 27.2494C58.2129 26.9789 57.3641 26.58 56.4806 26.3003C56.1655 26.1994 55.7901 26.311 55.4419 26.2973C54.679 26.2682 53.9131 26.2499 53.1547 26.1719C52.6632 26.1215 52.1823 25.9748 51.6848 25.8678C51.3953 27.0354 51.2189 28.1725 50.8239 29.2239C50.441 30.2448 49.8319 31.1801 49.2816 32.2301C49.7278 32.4272 50.2721 32.661 50.8103 32.9086C51.0832 33.034 51.3591 33.1639 51.6109 33.3289C52.1702 33.6942 52.2532 34.2841 51.6953 34.6188C49.3554 36.0233 47.9729 38.4578 45.8667 40.1084C45.7295 40.2154 45.6994 40.5761 45.7446 40.7915C45.8938 41.5083 46.1456 42.2052 46.2723 42.925C46.4743 44.0743 46.0974 44.4518 44.9772 44.5924C43.3323 44.8002 41.6965 45.0387 40.0622 44.5786C39.4878 44.4166 38.8847 44.2699 38.3766 43.9734C37.9032 43.6953 37.5489 43.6693 37.0635 43.9093C36.3684 44.2516 35.6402 44.5481 34.8985 44.7697C33.9592 45.0494 33.2476 45.6163 32.6596 46.3652C32.2133 46.9322 31.7475 47.4014 31.0117 47.6108C30.6815 47.704 30.3423 48.0891 30.1825 48.4284C29.3623 50.1615 27.9361 50.9592 26.145 50.9883C24.5167 51.0143 23.1161 51.4743 21.8135 52.4447C20.431 53.4733 18.2705 53.0285 17.5438 51.4773C16.8442 49.9811 15.8266 48.8854 14.4651 48.0433C14.1983 47.8782 13.85 47.6077 13.8108 47.3448C13.6178 46.0534 12.4117 45.5736 11.777 44.6382C11.1362 43.6938 10.2618 42.8929 9.40543 42.1257C8.66215 41.4594 7.76359 40.9719 7.00373 40.3224C5.86243 39.3458 5.76895 38.1384 6.51374 36.7859L6.51072 36.7905ZM39.7094 27.4435C39.6551 27.393 39.6024 27.3441 39.5481 27.2937C39.2978 27.6055 39.0355 27.9081 38.8063 28.2367C38.7611 28.3024 38.8274 28.5515 38.8772 28.5637C39.2752 28.66 39.7079 28.8388 40.0803 28.7578C40.4286 28.6829 40.718 28.3222 41.0316 28.0869C41.208 27.9554 41.3829 27.8225 41.5578 27.6895C41.6317 27.9218 41.8382 28.2611 41.7553 28.365C41.5005 28.686 41.1221 28.9015 40.8191 29.1873C40.4723 29.5143 40.127 29.8505 39.8346 30.225C39.2782 30.9371 38.7943 31.7089 38.2063 32.3921C37.9892 32.6442 37.564 32.7115 37.2338 32.8628C37.2112 32.8062 37.1886 32.7512 37.1675 32.6947C37.7902 32.0238 38.4113 31.3528 39.138 30.5704C38.5289 30.5123 37.9666 30.6284 37.7449 30.4022C37.1946 29.8398 36.5252 29.7649 35.8513 29.6014C35.0357 29.4043 34.5969 29.577 34.2622 30.4084C34.1838 30.6024 34.318 30.9998 34.4869 31.1419C34.606 31.2428 34.9723 31.116 35.1834 31.0044C35.3266 30.9295 35.3945 30.7033 35.4955 30.5459C35.5679 30.549 35.6387 30.552 35.7111 30.5551C35.7654 30.7889 35.9056 31.0487 35.8483 31.2489C35.791 31.4461 35.5513 31.6906 35.3583 31.7273C34.6768 31.8556 33.9999 31.8679 33.6109 31.0869C33.5521 30.9677 33.3531 30.8837 33.2054 30.8516C32.7395 30.7492 32.2676 30.6773 31.6917 30.5749C31.0977 31.1098 30.7705 32.1842 29.5779 32.4807C30.0619 31.7624 30.4509 31.1847 30.8157 30.6437C30.0604 30.5933 29.4332 30.5658 28.8075 30.5062C28.1321 30.4435 27.526 30.4481 27.1868 31.2214C27.0285 31.5851 26.7496 31.9045 26.4842 32.2071C26.3274 32.386 26.0907 32.4929 25.8887 32.6335C25.8435 32.5831 25.7997 32.5327 25.7545 32.4807C26.0998 31.9473 26.4933 31.4384 26.7782 30.873C27.0601 30.3167 27.235 29.7023 27.4567 29.1139C26.6893 29.2988 26.6953 30.7278 25.4801 29.959C25.7455 29.8016 25.9626 29.7176 26.1148 29.5663C26.2159 29.4654 26.3108 29.1842 26.2611 29.1353C26.145 29.0191 25.9068 28.9015 25.7786 28.9504C25.5691 29.0298 25.4047 29.2377 25.2268 29.3966C25.0761 29.5296 24.9328 29.6702 24.6976 29.8903C24.6313 29.4409 24.5891 29.1567 24.5273 28.7303C24.3614 28.9748 24.2393 29.0956 24.1865 29.2407C23.9966 29.7649 23.6136 29.8597 23.1553 29.7099C21.9838 29.3248 21.0295 29.5709 20.1988 30.5352C19.9018 30.8806 19.3846 31.0304 18.967 31.2688C18.9308 31.2015 18.8947 31.1343 18.8585 31.067C19.3726 30.5704 19.8852 30.0721 20.3993 29.5754C20.3571 29.5311 20.3149 29.4883 20.2742 29.444C19.5957 29.9208 18.9158 30.3977 18.2373 30.8745L17.9433 30.5169C18.3971 30.228 18.8494 29.9392 19.2927 29.6549C18.462 28.7257 17.0855 29.4226 16.5909 28.1404C16.4266 28.5026 16.3753 28.8113 16.3663 29.1231C16.3437 29.982 15.7316 30.5291 14.8722 30.4359C15.5939 29.7145 15.7788 28.956 15.427 28.1602C15.6909 28.0395 15.9984 27.9677 16.202 27.7812C16.3467 27.6467 16.4749 27.2631 16.3949 27.1577C16.2502 26.9666 15.917 26.7726 15.715 26.8184C15.5175 26.8627 15.3305 27.1821 15.234 27.4205C15.0396 27.9065 14.723 28.0288 14.2812 27.8362C13.8576 27.6513 13.4505 27.4236 12.9816 27.1867C13.2093 27.0461 13.3947 26.93 13.7128 26.7313C12.3152 26.4608 11.6006 27.1837 11.1769 28.0044C11.1031 27.5138 10.984 26.9697 10.9523 26.421C10.9372 26.1521 11.0865 25.8724 11.1603 25.5988C11.2297 25.6202 11.2975 25.6432 11.3669 25.6645C11.3247 25.9213 11.2825 26.178 11.2342 26.4654C12.2474 26.0436 12.469 25.1862 11.8358 24.3258C12.2685 24.2081 12.7012 24.0919 13.253 23.9422C13.1324 24.2662 13.0525 24.5183 12.9454 24.7583C12.4871 25.7883 12.5233 25.8342 13.6043 26.1093C14.8149 26.418 16.1884 26.1093 17.2211 27.0904C17.2377 27.1057 17.2679 27.1042 17.2935 27.1088C19.4434 27.471 21.5481 28.1266 23.7689 28.0502C24.3524 28.0303 24.77 27.9065 25.1107 27.4526C25.554 26.8627 26.1405 26.5387 26.8702 26.6778C27.1084 26.7236 27.4099 26.9743 27.4793 27.1974C27.5335 27.3701 27.3225 27.7644 27.14 27.8424C26.9275 27.931 26.6169 27.7812 26.35 27.7338L26.3772 27.5291C26.531 27.4343 26.6847 27.3411 26.8385 27.2463C25.9716 27.1959 25.56 27.7782 25.1138 28.3329C26.2943 28.5133 27.3979 28.6768 28.5 28.8526C28.8377 28.906 29.1679 29.0344 29.5041 29.0528C30.4041 29.1001 31.2876 28.2794 32.2073 29.0023C32.248 29.0344 32.3566 29.0023 32.4229 28.9763C32.9265 28.7731 33.5838 29.2927 33.9863 28.6294C35.1714 28.851 35.4156 27.7659 36.2388 27.0461C25.8224 26.7603 16.2683 24.2937 7.67464 18.5611C7.00222 19.7608 6.80924 21.0537 7.22083 21.7598C7.39723 21.665 7.57513 21.5703 7.58116 21.5672C7.73946 21.9539 7.82842 22.313 8.01687 22.6049C8.54606 23.4287 8.38625 24.4587 7.54347 24.8194C7.64901 24.3976 7.73796 24.0384 7.84952 23.5922C6.71878 24.341 6.64189 24.6299 7.27209 25.6645C7.50729 26.0512 7.77866 26.4226 8.07266 26.7664C10.3568 29.4272 13.348 30.9341 16.5729 32.0176C19.6515 33.0523 22.8116 33.7675 26.0364 34.1129C28.699 34.3987 31.3917 34.848 34.0406 34.6921C37.1208 34.5103 40.1843 33.8302 43.2238 33.2082C45.3119 32.7803 47.2025 31.8235 48.6604 30.1592C49.2122 29.5296 49.6042 28.8312 49.5198 27.8653C48.374 28.6936 46.7819 28.2917 45.7416 29.4532C45.6255 29.3645 45.4823 29.256 45.3345 29.1429C44.3827 30.8831 43.7198 31.7262 43.3459 31.6722C43.6203 31.2245 43.8992 30.7782 44.1676 30.3258C44.4073 29.9224 44.5837 29.5495 44.1676 29.0971C44.0093 28.9244 44.0907 28.5255 44.062 28.2305L44.3048 28.1939C44.4148 28.3513 44.5249 28.5087 44.7299 28.8021C44.849 27.9814 44.9455 27.3182 45.0405 26.6564L44.8234 26.5892C45.0707 26.4684 45.3179 26.3477 45.5667 26.2254C43.9007 26.3523 42.277 26.5907 40.6623 26.8841C40.5205 26.9101 40.3773 27.2952 40.3472 27.5275C40.2567 28.2504 39.8828 28.4491 39.2044 28.0334C39.3777 27.8301 39.5436 27.6345 39.7094 27.4389V27.4435ZM22.7512 40.1053C22.6653 40.1053 22.5809 40.1038 22.4949 40.1023C22.2778 40.8313 22.0622 41.5603 21.8451 42.2893C21.7547 41.7146 21.8451 41.166 21.8421 40.6173C21.8406 40.3636 21.714 39.9892 21.53 39.8944C21.3461 39.7997 20.9632 39.9067 20.7687 40.0595C20.2546 40.4614 19.7902 40.9291 19.3168 41.3815C17.9705 42.6698 16.5985 43.9322 15.2989 45.2679C14.6762 45.9082 14.7516 46.5654 15.4994 47.0438C16.9136 47.95 17.9689 49.1406 18.8178 50.594C19.4645 51.7005 20.0179 51.7922 20.9873 50.9776C22.4784 49.7274 24.2061 49.269 26.0681 49.2094C28.5196 49.1314 29.6322 46.9689 28.3673 44.8675C27.2923 43.0824 26.0606 41.3952 24.9283 39.7126C23.5337 39.9999 23.5006 40.0473 23.6287 41.2592C23.6619 41.574 23.6724 41.8904 23.6935 42.2052C23.6679 42.2098 23.6423 42.2159 23.6166 42.2205C23.3287 41.5144 23.0392 40.8084 22.7512 40.1038V40.1053ZM17.3991 35.1629C17.4081 35.1384 17.4171 35.114 17.4262 35.091C17.9222 35.1415 18.4499 35.1033 18.9082 35.2637C19.656 35.5251 19.9621 35.1384 20.2757 34.5103C17.2619 33.7629 14.3491 32.846 11.6096 31.4354C11.4498 31.3528 11.1498 31.3803 10.996 31.4827C9.98739 32.1537 9.223 33.0248 9.28029 34.3299C9.32854 35.4181 8.95012 36.303 8.32142 37.1405C7.16655 38.6794 7.1756 38.6886 8.6516 39.9724C8.82197 40.1206 9.00138 40.2689 9.19888 40.3728C10.9161 41.2699 12.3092 42.4956 13.2078 44.2669C13.2862 44.4228 13.7023 44.519 13.9118 44.461C14.2103 44.3784 14.4908 44.1568 14.729 43.9398C15.6034 43.139 16.4703 42.3275 17.3176 41.4961C18.2268 40.6051 19.1102 39.6896 19.8641 38.9255C19.6244 37.3086 18.7514 37.2199 17.6026 37.628C18.0458 37.3483 18.4996 37.2352 18.8962 37.0151C19.1314 36.8852 19.3047 36.604 19.4419 36.3564C19.4826 36.2846 19.3349 36.0156 19.2158 35.9576C18.6203 35.6702 18.0066 35.4227 17.3975 35.1629H17.3991ZM29.2719 39.6086C29.2478 39.6469 29.2236 39.6835 29.1995 39.7217C28.3793 39.3183 27.5682 38.8888 26.73 38.5281C26.5174 38.4365 26.2143 38.5664 25.952 38.5954C26.0063 38.8338 26.0033 39.1089 26.1269 39.303C26.3696 39.6851 26.7058 40.0045 26.9606 40.3804C28.1019 42.0646 29.5674 43.5363 30.2504 45.5323C30.2956 45.6653 30.8429 45.7264 31.1082 45.6484C31.3359 45.5812 31.5077 45.2817 31.6781 45.0631C32.3792 44.1599 33.2416 43.5256 34.3527 43.2047C34.9693 43.0259 35.5513 42.7019 36.1287 42.4054C36.584 42.1731 36.7529 41.8354 36.5463 41.2775C36.1875 40.3055 36.1438 39.306 36.4906 38.2989C36.6036 37.9719 36.6549 37.5974 36.6293 37.252C36.5584 36.3259 36.2312 36.0523 35.5181 36.0554C32.9415 36.0661 30.3649 36.0432 27.7883 36.0263C27.5622 36.0263 27.3376 35.9744 27.1114 35.9469C27.1174 35.9606 27.122 35.9744 27.128 35.9881C28.4517 36.2434 29.7754 36.4971 31.0992 36.7523C29.8373 36.8959 28.6206 36.873 27.4054 36.9127C27.1491 36.9204 26.8988 37.1527 26.6455 37.2811C26.7948 37.5134 26.8973 37.8053 27.0993 37.9688C27.8049 38.5388 28.5467 39.0646 29.2749 39.6071L29.2719 39.6086ZM40.6849 4.39689C40.5808 3.0092 39.1169 1.58025 37.665 1.46563C36.872 1.40297 36.0654 1.34642 35.298 1.15386C34.2698 0.894049 32.9249 1.21193 32.3309 2.08306C31.85 2.7876 31.2982 3.2629 30.4403 3.44476C29.6805 3.60676 29.5598 4.02245 30.1056 4.565C31.3208 5.7754 32.5706 6.95066 33.8582 8.08159C34.0979 8.29249 34.5758 8.26957 34.9452 8.27874C35.8091 8.30013 36.6941 8.158 37.5308 8.3093C38.057 8.40559 38.3284 8.33834 38.5922 7.93182C39.1154 7.12488 39.6582 6.3317 40.1617 5.51406C40.3758 5.16561 40.513 4.76979 40.6864 4.39536L40.6849 4.39689ZM32.7666 10.7469C33.4345 10.0607 33.5521 9.47539 33.0139 8.94813C31.6615 7.62616 30.2564 6.36226 28.8829 5.06322C28.0416 4.26698 26.0983 4.85537 25.5932 5.66995C25.2118 6.28585 24.6253 6.7856 24.081 7.28229C23.6604 7.66589 23.3423 8.52785 23.6031 8.92673C24.0931 9.67406 24.7037 10.3878 23.7674 11.479C27.2682 11.9558 30.5127 12.3975 33.7572 12.8376L33.8582 12.5029C33.5024 12.3104 33.1466 12.1193 32.7666 11.9145C32.9747 11.7632 33.1737 11.6211 33.4014 11.456C33.1345 11.158 32.9717 10.9762 32.7651 10.7454L32.7666 10.7469ZM33.7059 17.1199C33.7707 17.3552 33.816 17.5447 33.8883 17.7236C33.8929 17.7358 34.1597 17.7006 34.1884 17.6364C34.5457 16.8142 35.1653 17.0343 35.788 17.181C35.9855 17.2284 36.3112 17.262 36.385 17.1581C36.4875 17.016 36.4906 16.6797 36.3896 16.5315C36.2086 16.2702 35.9448 15.9569 35.6674 15.8942C34.1778 15.561 32.6777 15.2615 31.1715 15.0185C26.0349 14.1917 20.8893 14.1642 15.7467 14.9512C14.1711 15.1927 12.6786 15.7307 11.3955 16.7149C11.1317 16.9182 10.8422 17.479 10.9417 17.6854C11.1 18.0093 11.6383 18.4205 11.9112 18.3547C12.5715 18.1943 13.2108 17.8351 13.7792 17.4378C13.9872 17.2926 13.9646 16.8158 14.0581 16.4933C14.1033 16.3359 14.1727 16.1846 14.2179 16.0684C14.4757 16.4092 14.6506 16.8585 14.9687 17.019C15.6863 17.3782 15.7436 17.583 15.3773 18.3288C15.2265 18.6359 15.2672 19.2045 15.4617 19.4857C15.7346 19.8815 16.3 20.4363 16.6181 20.3644C17.5875 20.1474 18.4996 19.663 19.4766 19.2641C19.16 18.8362 18.9203 18.4801 18.6459 18.153C18.379 17.8351 18.1016 17.5188 17.7835 17.2559C17.5031 17.0236 17.1623 16.8662 16.8488 16.6752C16.9015 16.5972 16.9543 16.5193 17.0071 16.4413C17.295 16.5758 17.5739 16.7378 17.874 16.8402C18.6067 17.0878 19.0575 16.5911 18.8343 15.7826C19.2037 15.9569 19.4872 16.3053 19.843 16.4184C20.241 16.5437 20.7898 16.6706 21.0024 16.0073C20.7099 15.8728 20.4536 15.7551 20.0601 15.5733C21.2119 14.9864 21.5014 16.4841 22.3623 16.1739C22.3789 16.3114 22.3713 16.3939 22.4 16.4612C22.4919 16.669 22.5975 16.8708 22.697 17.0756C22.8296 16.8983 22.9653 16.7225 23.092 16.5407C23.1749 16.4245 23.2397 16.1968 23.3211 16.1922C24.081 16.151 24.8424 16.1464 25.6037 16.1387C25.6294 16.1387 25.6565 16.2075 25.7017 16.2686C25.6143 16.3221 25.5148 16.3573 25.4515 16.426C25.3248 16.5666 25.2178 16.7241 25.1017 16.8754C25.2992 16.8815 25.5434 16.9655 25.6836 16.8784C26.0998 16.6201 26.4737 16.2946 26.9003 15.9676C26.6063 15.7337 26.3591 15.5366 26.1103 15.3394L26.2837 15.0934C26.647 15.3425 27.0119 15.5901 27.3707 15.8438C27.5607 15.9783 27.7597 16.2656 27.924 16.2442C28.7382 16.1403 29.2387 16.3664 29.204 17.3507C29.29 17.3338 29.3774 17.317 29.4634 17.3002C29.483 17.0205 29.5041 16.7393 29.5222 16.4826C29.8101 16.5284 30.1026 16.6125 30.3966 16.614C31.1308 16.6186 31.8651 16.5789 32.5993 16.5728C32.6837 16.5728 32.7666 16.6752 32.8556 16.7195C33.1451 16.8601 33.4375 16.9961 33.7059 17.1229V17.1199ZM39.0672 8.98786C39.34 9.21864 39.5104 9.42343 39.7275 9.53193C40.6954 10.0164 40.8417 11.0587 41.1749 11.9023C41.3482 12.344 41.5005 12.5763 41.8895 12.6909C43.0187 13.0256 44.1419 13.3893 45.2863 13.6583C46.8859 14.0358 47.9412 12.9599 47.4588 11.4071C47.1769 10.5009 47.3608 9.71839 47.6669 8.89769C48.0121 7.97308 47.884 7.67048 46.9688 7.32661C46.0024 6.96288 45.2154 6.37755 44.5445 5.58742C43.7711 4.67656 42.1564 4.67809 41.4251 5.62716C40.6095 6.68626 39.8813 7.81567 39.0656 8.98481L39.0672 8.98786ZM48.7132 20.9452C47.9805 19.8509 47.1512 18.8331 46.0416 18.1469C43.5389 16.6003 40.7919 15.6115 37.956 14.9436C35.5438 14.3766 33.0908 13.967 30.6378 13.6125C28.1622 13.2533 25.6701 12.9492 23.1749 12.8009C20.1279 12.6206 17.1337 13.2426 14.1636 13.8463C12.8489 14.1137 11.5448 14.5355 10.3115 15.0689C9.19888 15.5503 9.18833 16.1296 10.0809 17.0435C11.5991 15.3272 13.5907 14.5508 15.7723 14.2681C17.5076 14.0434 19.261 13.8463 21.0069 13.8509C23.9076 13.86 26.8249 13.8753 29.7016 14.1993C32.3762 14.5004 35.0628 15.0093 37.6409 15.7796C41.5503 16.9457 45.44 18.2661 48.7117 20.9452H48.7132ZM18.3715 20.7985C18.376 20.9039 18.382 21.0109 18.3866 21.1164C26.047 24.1164 33.9486 24.6375 42.0342 23.4027C41.3739 23.0894 40.6984 22.8494 40.0064 22.6706C39.815 22.6217 39.536 22.6936 39.3687 22.8128C38.446 23.4684 37.4479 23.3767 36.4061 23.256C35.7247 23.1765 35.0176 23.256 34.3286 23.3247C33.7587 23.3813 33.1843 23.661 32.634 23.6059C30.7147 23.4134 29.0593 22.7012 27.9828 20.9299C27.7974 20.6258 27.3511 20.3262 27.0089 20.3048C25.5872 20.2162 24.1549 20.152 22.7347 20.2376C21.2752 20.3262 19.8264 20.6029 18.373 20.7969L18.3715 20.7985ZM49.8123 22.3527L49.6916 22.1831C49.5635 22.2397 49.4338 22.2947 49.3057 22.3558C47.8613 23.0344 46.4803 24.0125 44.9636 24.3365C39.916 25.4109 34.802 25.7211 29.6533 25.0517C24.3825 24.367 19.261 23.1398 14.4079 20.8948C12.855 20.1765 11.3036 19.4505 9.80345 18.7536C9.81551 18.7674 9.87431 18.8407 9.94216 18.9049C11.2991 20.2009 12.971 20.9391 14.6506 21.6818C18.085 23.1979 21.6431 24.3655 25.2901 25.1541C29.8553 26.1414 34.5216 26.3187 39.1772 26.1857C41.6754 26.1139 44.1781 25.8097 46.5482 24.8759C47.8809 24.3517 48.9438 23.4715 49.8153 22.3543L49.8123 22.3527ZM38.0027 18.3639C38.0661 18.4082 38.1294 18.4541 38.1927 18.4984C37.8625 18.9049 37.5324 19.3115 37.1419 19.7913C36.584 18.7261 35.6191 18.668 34.716 18.5366C34.4175 18.4938 34.0874 18.6757 33.7707 18.7552C33.9607 19.0898 34.1039 19.4689 34.3572 19.744C34.5261 19.9274 34.8457 19.9946 35.1111 20.0527C35.7458 20.1933 36.385 20.3354 37.0303 20.4118C39.3355 20.6823 41.5488 21.2295 43.5117 22.5545C43.9776 22.8678 44.3379 23.3828 45.036 23.0313C45.532 22.7807 46.0868 22.6508 46.616 22.4658C46.613 22.3925 46.61 22.3207 46.6085 22.2473C46.3265 22.1067 46.0506 21.9462 45.7597 21.8285C45.3662 21.6696 44.8204 21.6604 44.5882 21.3777C44.0605 20.7358 43.7168 21.0017 43.2268 21.3792C43.0037 21.5504 42.5363 21.6329 42.3101 21.5091C41.8895 21.2799 41.5729 20.8657 41.4885 20.152C41.986 20.609 42.3207 20.9177 42.6554 21.2249C42.7519 21.1485 42.8484 21.072 42.9449 20.9956C42.7293 20.6044 42.571 20.1627 42.2845 19.8357C41.9905 19.501 41.5699 19.2809 41.0723 18.9141H43.2796C43.1001 19.125 42.969 19.2794 42.7368 19.5544H43.572C43.5419 19.8402 43.5178 20.0725 43.4937 20.3048C43.572 20.3262 43.652 20.3476 43.7304 20.369C43.8163 20.0267 43.9007 19.6844 43.9882 19.3359C44.5204 19.5804 45.0285 19.8127 45.538 20.0466C45.5772 19.9518 45.6164 19.857 45.6541 19.7623C42.9705 18.0659 40.0336 17.0358 36.9037 16.264C36.9549 16.9655 36.9655 17.4729 37.0378 17.9696C37.0755 18.2248 37.2248 18.4648 37.3228 18.7108C37.5504 18.5962 37.7781 18.4801 38.0043 18.3654L38.0027 18.3639ZM48.3001 35.357C47.6729 35.4746 47.1362 35.574 46.6024 35.6748C44.0666 36.1578 41.5277 36.6208 39.0008 37.1481C38.6706 37.2169 38.3178 37.5699 38.152 37.8847C38.0691 38.0406 38.3178 38.5006 38.5334 38.6733C39.3129 39.2969 40.1828 39.6621 41.2201 39.7095C44.5294 39.8623 46.4909 37.8404 48.3001 35.357ZM9.87431 30.4267C9.76878 30.2448 9.75219 30.1929 9.71752 30.1608C9.64364 30.092 9.56223 30.0339 9.48232 29.9713C7.7259 28.6126 6.16094 27.1164 5.69206 24.7812C5.63929 24.5183 5.41917 24.1699 5.19453 24.0843C4.24018 23.7221 3.27528 23.7511 2.10383 24.283C4.48141 26.632 6.74441 28.8678 9.07375 31.1694C9.43257 30.8363 9.66776 30.6177 9.87431 30.4267ZM33.2566 17.9253C32.5767 17.8947 31.9661 17.8672 31.1836 17.8321C31.562 18.1652 31.8138 18.3868 32.0761 18.6191C31.155 19.099 30.4976 18.9431 29.9925 18.1759C29.9217 18.0674 29.7694 17.9941 29.6413 17.9497C29.2161 17.803 28.7909 17.6181 28.3507 17.5585C27.8155 17.4867 27.2607 17.5631 26.7209 17.5111C26.0153 17.4424 25.3173 17.2987 24.6132 17.2162C24.4866 17.2009 24.2348 17.3094 24.2272 17.3812C24.1805 17.8275 24.1202 18.2936 24.2092 18.7231C24.2393 18.8698 24.6841 18.9982 24.9464 19.015C26.6953 19.1281 28.4487 19.1892 30.1976 19.3069C31.2333 19.3772 32.2631 19.5178 33.2566 19.6217V17.9253ZM22.7362 11.5218C22.9412 10.8936 22.5477 10.6888 22.1497 10.5039C20.6013 9.78257 18.9474 9.49067 17.2694 9.44329C15.9788 9.40661 14.6838 9.56861 13.3917 9.64197C13.3917 9.74437 13.3887 9.84676 13.3872 9.94916C16.499 10.3832 19.4103 11.968 22.7347 11.5202L22.7362 11.5218ZM54.976 20.69L55.2429 20.4363C54.5177 19.2855 53.889 18.0552 53.0417 17.0053C52.0315 15.7505 50.8435 14.6303 49.3057 14.0266C48.3619 13.6568 48.2202 13.7332 47.587 14.7388C49.2077 15.1683 50.4048 16.2243 51.5521 17.3614C52.6828 18.4816 53.8332 19.582 54.9745 20.6915L54.976 20.69ZM37.9002 36.1593C37.9394 36.2739 37.9801 36.3901 38.0193 36.5047C41.8217 35.8536 45.6285 35.2225 49.3419 34.0518C48.3649 33.5536 47.3955 33.4588 46.3401 33.8287C45.0209 34.2917 43.6761 34.6891 42.3207 35.033C41.1598 35.3279 39.9687 35.493 38.7973 35.7512C38.4837 35.82 38.1987 36.0202 37.9002 36.1593ZM46.4351 27.9982C46.8995 27.5795 47.296 27.1577 47.7543 26.823C48.4358 26.3248 49.1911 25.9289 49.859 25.4154C50.539 24.8928 50.3776 24.1638 50.2585 23.5326C48.9288 24.2845 47.6412 24.9936 46.3718 25.7333C45.7024 26.123 45.8381 27.6513 46.4351 27.9967V27.9982ZM21.4155 17.3843C21.4305 17.314 21.4441 17.2437 21.4592 17.1734C21.2406 17.0893 21.0174 16.9212 20.8064 16.9365C20.3194 16.9732 19.84 17.1015 19.356 17.1856C19.1856 17.2146 19.0122 17.2238 18.8389 17.2421C18.8916 17.4255 18.9218 17.6196 19.0047 17.7877C19.1479 18.0812 19.2731 18.4098 19.4962 18.6314C19.7359 18.8682 20.0751 19.1372 20.3767 19.1449C21.2948 19.1693 22.219 19.099 23.1357 19.0058C23.3272 18.9859 23.6589 18.6864 23.6393 18.5595C23.585 18.2019 23.4222 17.6044 23.2292 17.5753C22.7512 17.5004 22.2055 17.236 21.7125 17.7159C21.3732 18.046 20.9677 18.0338 20.7069 17.4989C20.9737 17.4561 21.1953 17.421 21.4155 17.3858V17.3843ZM48.2564 16.2167C47.9925 17.1107 48.2564 17.6594 48.7614 18.1622C49.9796 19.3726 51.1752 20.6074 52.3873 21.824C52.5803 22.0165 52.8095 22.1724 53.0206 22.3451C51.7948 20.0267 50.5797 17.7312 48.2564 16.2167ZM29.2794 20.2987C30.2443 22.4169 32.738 22.8357 35.3146 21.5703L35.3523 21.3456C33.3275 20.9972 31.3042 20.6472 29.2794 20.2987ZM7.69424 30.7614C6.00415 29.1108 4.36984 27.5153 2.73705 25.9198C2.90289 27.2005 3.53611 28.1847 4.24923 29.1276C5.07241 30.2158 6.00415 31.0976 7.69424 30.7614ZM46.8015 17.1443C47.0668 16.1479 46.5602 15.1591 45.7612 14.9436C44.7495 14.6716 43.7379 14.3965 42.7293 14.1168C42.1443 13.9548 41.5638 13.779 40.9819 13.6079C40.9457 13.6889 40.9095 13.7699 40.8718 13.8509C42.776 15.0598 44.7405 16.1601 46.8015 17.1443ZM38.0088 40.6341C37.7796 42.1624 38.8455 42.6301 39.9808 42.9846C40.5748 43.1696 41.205 43.2918 41.8247 43.3178C42.3071 43.3392 42.7971 43.168 43.2841 43.0824C43.2841 43.0045 43.2826 42.9281 43.2811 42.8501C41.5111 42.1059 39.7426 41.3616 38.0103 40.6341H38.0088ZM2.65262 33.6682C2.63151 33.7568 2.61191 33.8455 2.5908 33.9341C3.99896 34.6906 5.47496 35.2377 7.11228 35.1384C7.39873 35.1201 7.66559 34.7823 7.943 34.5913C7.67765 34.3788 7.42738 34.009 7.14394 33.98C5.65135 33.8287 4.15123 33.7645 2.65262 33.6697V33.6682ZM50.747 21.0094C50.8917 21.4037 51.0561 21.7919 51.1752 22.1938C51.2973 22.6064 51.3968 23.0282 51.4722 23.4516C51.6953 24.6941 52.7658 25.3237 54.0804 24.8851C53.2392 23.3492 52.0195 22.1724 50.747 21.0079V21.0094ZM18.2464 11.7097C16.505 11.2864 14.839 10.8814 13.1022 10.4596C14.1289 12.2248 16.1824 12.7184 18.2464 11.7097ZM35.6659 28.8296C36.679 29.4746 37.8897 28.7807 38.6661 27.1271H37.5037C37.5414 27.7018 37.46 28.3773 36.8584 28.1725C36.085 27.9081 35.9599 28.3528 35.6659 28.8296ZM3.25116 32.5036C3.24814 32.5999 3.24362 32.6977 3.2406 32.794C3.69139 32.8674 4.13917 32.9621 4.59298 33.008C5.50963 33.0997 6.42931 33.1883 7.34898 33.2219C7.53895 33.2296 7.73645 32.9942 7.92943 32.8704C7.75906 32.7344 7.60679 32.5602 7.41532 32.4731C7.27209 32.4074 7.07911 32.4486 6.90874 32.4532C6.49564 32.4654 6.08255 32.496 5.66794 32.5006C4.86285 32.5082 4.05776 32.5021 3.25267 32.5021L3.25116 32.5036ZM57.643 25.2947C56.9344 23.6701 55.7539 22.4536 55.0046 22.5193C55.3936 23.5142 56.5711 24.7781 57.643 25.2947ZM42.4865 41.5129C43.3926 41.9179 44.1073 42.2388 44.9727 42.6255C44.5385 41.0422 44.1073 40.8557 42.4865 41.5129ZM13.8214 18.7368H13.2319C13.345 18.9034 13.4218 19.1403 13.5786 19.2213C14.0536 19.4704 14.5601 19.6584 15.0531 19.8708C15.0923 19.825 15.1315 19.7776 15.1692 19.7317C14.7908 19.1525 14.4109 18.5733 14.0324 17.9941C13.9616 18.0338 13.8922 18.0735 13.8214 18.1133V18.7353V18.7368ZM21.8662 8.97869C21.8904 8.90686 21.9145 8.83503 21.9386 8.7632C20.6164 8.31083 19.2957 7.85846 17.9735 7.40608C17.9493 7.47944 17.9252 7.55127 17.8996 7.62463C19.0379 8.6226 20.5968 8.37043 21.8662 8.97869ZM21.1305 38.2989C21.6115 38.684 22.0351 39.0554 22.5417 38.6198C22.6517 38.5251 22.5613 37.9489 22.3924 37.8114C21.8391 37.3605 21.5346 37.8802 21.1305 38.2989ZM38.844 10.2258C38.844 10.1432 38.844 10.0592 38.8425 9.97667C38.535 9.80703 38.2395 9.55486 37.9138 9.5029C37.7374 9.47539 37.5097 9.79327 37.3047 9.95527C37.5821 10.1753 37.8309 10.4825 38.146 10.5803C38.3254 10.6369 38.6088 10.3542 38.8455 10.2242L38.844 10.2258ZM20.7913 37.2918C21.1019 36.8883 21.3974 36.6621 21.426 36.4054C21.4426 36.2541 21.0446 35.9346 20.8154 35.9178C20.6481 35.9056 20.3239 36.2464 20.3043 36.4527C20.2847 36.6652 20.5501 36.9036 20.7913 37.2918ZM37.1705 12.8086C36.7077 12.4876 36.3895 12.2278 36.0307 12.0551C35.9689 12.0261 35.7337 12.3669 35.5799 12.5365C35.9177 12.7627 36.2448 13.0149 36.6051 13.1968C36.679 13.235 36.8795 13.0149 37.172 12.8086H37.1705ZM23.8624 36.9739C24.2242 37.2658 23.8337 38.0116 24.5876 37.8909C24.7971 37.8572 25.1394 37.3514 25.0821 37.1787C24.8921 36.604 24.4248 36.7492 23.8624 36.9739ZM39.3114 30.2158C39.2797 29.8796 39.3506 29.5219 39.2074 29.3645C38.936 29.068 38.1369 29.3279 37.7902 29.82C38.259 29.9422 38.6948 30.0553 39.3114 30.2158ZM39.5421 13.1433C39.0988 12.859 38.832 12.6466 38.5289 12.5274C38.4626 12.5014 38.1309 12.9263 38.152 12.9538C38.3646 13.2197 38.6073 13.4734 38.8877 13.6568C38.945 13.6935 39.1998 13.4184 39.5421 13.1433ZM35.6689 11.2696C35.2709 10.9257 35.0854 10.3144 34.4944 10.7347C34.3829 10.8142 34.3557 11.2161 34.4507 11.3567C34.8125 11.8947 35.2 11.589 35.6689 11.2696ZM21.9522 8.08923C21.9838 7.996 22.0155 7.90278 22.0472 7.80955C21.3461 7.30216 20.5018 7.28229 19.6937 7.13711C19.6726 7.20129 19.653 7.26701 19.6319 7.3312C20.4053 7.58337 21.1788 7.83706 21.9522 8.08923ZM36.7001 9.95833C36.2524 9.67559 35.9614 9.46469 35.6402 9.31797C35.5875 9.29352 35.4081 9.55792 35.2859 9.68935C35.5362 9.92623 35.7669 10.1983 36.0518 10.3771C36.1242 10.4229 36.376 10.1738 36.6986 9.9568L36.7001 9.95833ZM40.3381 11.7113C39.9763 11.4392 39.7758 11.2237 39.5285 11.1351C39.426 11.0984 39.227 11.3323 39.0717 11.4438C39.236 11.67 39.3627 11.9589 39.5813 12.0918C39.6823 12.1529 39.9642 11.9084 40.3366 11.7128L40.3381 11.7113ZM37.3605 10.9762C37.1524 11.1534 37.0303 11.2574 36.9097 11.3598C37.0966 11.5737 37.2745 11.7984 37.4871 11.9818C37.5067 11.9986 37.8836 11.6838 37.8625 11.6425C37.751 11.4194 37.567 11.2329 37.3605 10.9762ZM32.2736 29.6243C32.251 29.7802 32.2299 29.9361 32.2073 30.0905C32.4802 30.1394 32.7591 30.2372 33.0244 30.2081C33.1134 30.199 33.1662 29.8643 33.2355 29.6778C32.9144 29.6595 32.5933 29.6412 32.2721 29.6228L32.2736 29.6243ZM18.9339 29.0298C19.2052 28.7349 19.4027 28.5698 19.5203 28.3589C19.549 28.307 19.2474 27.9753 19.2113 27.9952C18.9957 28.1083 18.7846 28.2642 18.6383 28.4567C18.5976 28.5117 18.7786 28.7395 18.9339 29.0298ZM17.586 28.5989L17.8604 28.5469C17.9509 28.2611 18.0413 27.9738 18.1318 27.688C18.082 27.636 18.0323 27.5856 17.981 27.5336C17.791 27.6651 17.5061 27.7614 17.4383 27.9402C17.3719 28.1144 17.5272 28.3757 17.586 28.6004V28.5989ZM47.6955 21.4541C47.7317 21.3976 47.7664 21.3425 47.8025 21.286C47.2538 20.9116 46.705 20.5387 46.1562 20.1642C46.1034 20.2483 46.0491 20.3323 45.9964 20.4179C46.5632 20.7633 47.1286 21.1087 47.6955 21.4541Z" fill="#DAB47E"/>
</svg>
