<?xml version="1.0" encoding="UTF-8"?><svg id="Layer_2" xmlns="http://www.w3.org/2000/svg" viewBox="0 0 271.53 697"><g id="Layer_1-2"><path d="M108.9,302.44c-6.59,0-12.71-.04-18.83,0-16.32.13-32.64.4-48.95.41-5.21,0-9.08.98-12.63,5.73-7,9.37-18.33,8.08-24.02-2.17-1.67-3.01-3.1-6.37-3.69-9.73-1.56-8.94-1.39-17.49,6.3-24.32,7.45-6.62,15.54-6.59,21.46,1.35,2.76,3.69,5.72,4.74,10.07,4.7,21.83-.18,43.66-.09,65.49-.09,1.8,0,3.6,0,6.51,0,0-6.15-.25-11.78.04-17.38,1.68-32.52,3.6-65.03,5.21-97.55.77-15.61.75-31.26,1.64-46.86,1.01-17.67-.03-35.17-3.08-52.55-1.59-9.06-5.61-17.09-12.76-23.09-3.85-3.23-4.51-6.4-2.17-10.81,5.5-10.38,11.29-20.44,22.21-26.17,13.13-6.89,27.53-4.73,37,6.69,5.67,6.83,9.98,14.82,14.53,22.51.73,1.24.17,4.56-.93,5.38-13.05,9.64-14.99,23.81-16.85,38.42-3.51,27.61-.12,55.13.24,82.68.22,16.95,1.1,33.9,2.04,50.82,1.03,18.56,2.52,37.1,3.7,55.65.24,3.79.04,7.61.04,11.82,1.86.18,3.28.44,4.7.44,23.16.03,46.32-.03,69.49.08,3,.01,4.82-.91,6.48-3.45,6.28-9.64,16.55-10.06,24.01-1.19,7.95,9.45,6.93,28.75-1.98,37.31-7.37,7.08-18.62,5.35-22.88-4.01-1.8-3.97-4.12-4.74-7.99-4.71-21.33.15-42.66.08-63.99.08-1.95,0-3.9,0-6.76,0v31.52c0,24,.13,47.99-.03,71.98-.31,46.79-.78,93.58-1.2,140.37-.25,27.97-.46,55.95-.85,83.92-.28,20.13-.81,40.25-1.24,60.38-.02.99.16,2.23-.35,2.92-.94,1.31-2.32,2.32-3.52,3.45-.86-1.16-2.23-2.22-2.49-3.5-2.94-14.46-5.72-28.96-8.53-43.45-.67-3.43-1.8-6.85-1.87-10.29-.18-9.12.13-18.25.18-27.38.05-7.47.3-14.97-.16-22.41-.16-2.63-1.45-6.1-3.42-7.56-8.04-5.92-10.07-14.02-9.82-23.23.18-6.75-1.14-13.01-4.17-19.21-2.66-5.46-3.68-11.7-5.88-17.42-2.25-5.85-5.35-11.38-7.51-17.27-1.33-3.63-2.18-7.65-2.2-11.49-.24-50.15-.29-100.3-.37-150.45-.02-11.83,0-23.66-.01-35.49,0-1.78-.15-3.57-.23-5.41ZM150.91,644.66c.42,0,.85-.01,1.27-.02,1.06-112.68,2.11-225.37,3.18-339.09-5.32,3.32-9.69,5.97-13.96,8.76-3.65,2.38-7.03,2.23-10.64-.19-4.48-3.01-9.16-5.73-14.03-8.75-.15,1.2-.26,1.69-.26,2.18.05,62.16.03,124.31.35,186.47.02,4.4,2.6,8.79,3.99,13.18.52-.12,1.04-.25,1.56-.37.16-.9.45-1.81.47-2.71.34-12.47.85-24.93.93-37.4.26-39.98.36-79.96.53-119.95.02-5.83-.09-11.67.27-17.49.12-1.92,1.08-4.17,2.41-5.55,3.34-3.47,7.3-5.77,12.48-3.94,5.17,1.82,7.06,6.13,7.37,10.87.6,9.12.76,18.29.77,27.43.06,66.16.04,132.32.05,198.47,0,1.5-.07,3.01.04,4.5,1.38,19,3.17,37.97,2.05,57.09-.51,8.82-1.17,17.79,1.16,26.5ZM138.76,573.05c.53-.07,1.06-.14,1.59-.22.22-1.7.59-3.4.63-5.1.32-13.98.8-27.95.81-41.93.09-63.48.04-126.96.03-190.43,0-1.66,0-3.33-.11-4.99-.24-3.49-2.26-5.86-5.61-5.89-3.19-.02-5.64,1.87-5.85,5.56-.35,6.29-.98,12.59-.98,18.88-.07,60.15-.05,120.29-.02,180.44,0,1.64-.18,3.63.63,4.85,6.29,9.54,6.57,20.33,7.02,31.16.11,2.58,1.21,5.12,1.86,7.67ZM9.41,291.21c.19.06.37.12.56.17.12,1.66.17,3.32.36,4.97.49,4.26,1.33,8.88,6.16,9.79,4.83.91,6.36-3.9,7.66-7.16,1.5-3.79,3.74-4.29,7.23-4.27,22.49.12,45,.5,67.47-.12,11.06-.31,21.05.83,29.43,8.71,1.31,1.23,3.18,1.82,4.61,2.95,2.18,1.72,4.06,1.43,6.29-.01,5.44-3.52,10.96-6.92,16.57-10.16,1.64-.95,3.7-1.68,5.56-1.68,25.65.04,51.3.22,76.94.36,4.48.02,8.36.48,10.26,5.77.72,2,4.01,4.54,5.82,4.32,2.16-.26,4.8-2.85,5.83-5.08,2.82-6.13,2.78-12.67-.05-18.86-2.67-5.84-7.73-6.69-10.47-1.34-3.08,6.01-7.57,6.45-13.09,6.23-3.82-.15-7.65.25-11.48.25-64.3-.08-128.61-.22-192.91-.2-4.67,0-7.96-.47-10-5.57-1.99-4.97-7.49-4.89-9.84.01-1.6,3.34-1.99,7.26-2.92,10.92ZM124.6,159.34h22.91c-.43-12.44-1.06-24.55-1.23-36.66-.22-15.76-1.03-31.61.22-47.27,1.11-13.88,4.44-27.65,14.7-38.43,1.33-1.4,2-3.44,2.97-5.18-.4-.37-.8-.74-1.21-1.1-1.5,1-3.15,1.83-4.49,3.01-9.03,8.06-15.12,17.98-18.92,29.45-.6,1.8-2.47,3.19-3.75,4.77-1.27-1.64-2.82-3.14-3.75-4.95-3.1-6.02-5.5-12.46-9.06-18.18-3.44-5.53-7.73-10.64-14.48-13.29.13,2.08.94,3.75,1.82,5.37,3.76,6.97,8.7,13.56,11.01,20.98,2.62,8.42,3.9,17.56,3.99,26.41.24,24.9-.43,49.81-.74,75.07ZM113.29,23.58c8.08,10.13,15.68,19.64,23.21,29.08,5.78-9.92,11.81-20.64,22.7-27.6-5.38-9.02-12.06-16.26-22.51-16.62-10.98-.38-18.03,7.05-23.41,15.13ZM148.42,177.3h-24.8c-.3,3.07-.59,6.05-.9,9.15h26.25c-.19-3.11-.36-5.87-.55-9.15ZM148.86,207.96h-26.37c-.29,3.23-.53,5.76-.75,8.23h27.66c-.21-3.15-.37-5.72-.54-8.23ZM120.71,244.78h30.4q-.02-8.34-7.7-8.32c-3.32,0-6.63,0-9.95,0-4.21,0-8.42,0-12.75,0v8.32ZM150.11,230.49c.37-3.47.55-6.68-3.3-7.04-8.17-.77-16.39-1.05-24.75-1.53v8.57h28.05ZM123.17,200.44h25.42v-7.36h-25.42v7.36ZM151.72,251.78c-9.84,0-19.12-.14-28.37.15-1.37.04-2.67,2.16-4.01,3.32,1.25,1.1,2.47,3.12,3.75,3.15,9.51.27,19.04.15,28.63.15v-6.77ZM153.06,269.09c.18-.71.35-1.41.53-2.12-1.16-.63-2.3-1.78-3.47-1.81-9.47-.21-18.95-.27-28.42-.2-1.02,0-2.02,1.18-3.03,1.81.92.77,1.83,2.21,2.76,2.22,10.54.16,21.09.1,31.64.1ZM124.02,170.46h23.58c-.14-1.79-.26-3.2-.37-4.57h-23.21v4.57ZM120.43,276.58c0,.34,0,.68,0,1.02h31.16c0-.34,0-.68-.01-1.02h-31.16Z"/><path d="M12.06,290.42c.53-4.13-.38-9.08,4.26-9.53,5.03-.48,5.14,4.72,5.83,8.28.39,2.01.16,4.4-.59,6.3-.69,1.74-2.45,4.26-3.74,4.25-1.54,0-3.55-2.05-4.48-3.7-1-1.76-.98-4.1-1.29-5.61Z"/><path d="M258.73,290.91c-.11,1.96.21,3.63-.37,4.88-.73,1.57-2.63,4.14-3.25,3.93-1.86-.61-4.54-2.22-4.72-3.71-.43-3.47.05-7.19.91-10.62.36-1.42,2.64-2.36,4.05-3.52,1.02,1.36,2.42,2.59,2.95,4.12.58,1.65.34,3.59.43,4.92Z"/><path d="M135.82,80.04c-1.64-2.43-3.37-3.89-3.21-5.08.16-1.18,2.14-2.68,3.51-2.92.87-.15,3.01,1.84,2.94,2.75-.1,1.42-1.59,2.75-3.24,5.25Z"/><path d="M151.34,25.05c-.57.87-1.27,2.15-2.18,3.26-3.23,3.96-6.56,7.84-9.8,11.79-1.65,2.02-3.5,3.49-5.71,1.03-4.09-4.55-8.17-9.13-11.79-14.05-.84-1.14-.52-4.3.5-5.42,2.4-2.65,5.3-5.04,8.41-6.82,5.88-3.37,18.25,2.13,20.19,8.66.09.32.16.64.38,1.54ZM135.79,33.38c3.14-3.42,5.72-6.22,8.33-9.06-7.58-6.02-10.15-5.92-16.19.08,2.48,2.83,4.97,5.67,7.87,8.97Z"/></g></svg>