<?xml version="1.0" encoding="UTF-8"?><svg id="Layer_2" xmlns="http://www.w3.org/2000/svg" viewBox="0 0 329.24 440.1"><g id="Layer_1-2"><path d="M151.5,440.1c4.75-34.37,4.3-89.05,4.26-123.66-.02-12.33-.24-24.66-.22-36.99.01-8.71-4.77-14.36-11.8-18.27-1.79-.99-5.1-.91-6.79.15-1.2.75-1.68,4.28-1.03,6.03,2.22,6.07,5.07,11.91,7.7,17.82,3.01,6.8.86,12.71-3.45,18.01-.91,1.12-3.46,2.04-4.59,1.54-1.18-.52-2.48-3.12-2.14-4.36,2.41-8.69-.06-16.12-4.32-23.68-2.37-4.19-2.94-9.39-4.45-14.58-5.29,4.01-10.38,8.07-12.54,14.37-.94,2.75-.76,6.21-.06,9.11.88,3.64,2.63,6.88,7.23,2.78.99-.88,4.49-.63,5.29.36,1.21,1.49,1.86,4.31,1.32,6.16-1.2,4.11-6.31,6.32-11.18,5.05-3-.78-5.79-2.35-9.2-3.79-2,2.52-4.1,5.44-6.49,8.09-5.09,5.63-11.46,7.55-16.91,4.91-1.79-.87-3.48-2.56-4.48-4.31-1.65-2.87-.72-4.83,2.95-4.78,1.5.02,3.02-.17,4.5.04,5,.71,7.89-1.9,9.65-6.12,2.31-5.52,4.43-11.12,6.68-16.66,8.04-19.82,18.32-26.8,39.55-26.89,2.75-.01,5.5,0,8.31-.59-8.69-8.39-19.03-11.01-30.54-9.19-16.13,2.56-29.07,10.72-39.74,22.95-5.68,6.52-12.07,12.42-17.78,18.91-5.14,5.83-4.94,10.21-.11,16.44.51.66,1.3,1.25,1.48,1.99.57,2.34.91,4.74,1.34,7.11-2.57-.19-5.76.51-7.61-.75-5.2-3.54-7.35-9.05-7.98-15.33-.16-1.59-2.14-4.33-3.21-4.29-8.12.28-15.33-2.6-22.63-5.44-1.54-.6-3.43-.33-5.15-.46-.02,1.76-.41,3.62.02,5.26.8,3.02,2.02,6.43-1.7,7.72-3.67,1.27-6.31-1.46-7.77-4.69-2.62-5.8-.57-10.79,3.45-15.04,2.32-2.45,3.21-4.7,1.97-8.04-.78-2.11-.74-4.57-.79-6.88-.05-2.7,1.17-4.38,4.18-4.43,2.85-.04,4.05,1.23,4.61,4.03,1.45,7.26,4.24,13.73,11.92,16.57.56.21,1.18.26,2.8.61-6.43-10.45-4.62-20.92-3.61-31.47.33-3.41-1.35-7.05-2.34-10.52-.59-2.06-2.16-3.94-2.34-5.98-.19-2.14.75-4.39,1.2-6.58,2.12.82,5.28,1.04,6.17,2.58,2.69,4.67,4.54,9.83,6.6,14.84.43,1.04.38,2.27.65,4.06,1.62,0,3.4-.46,4.78.09,3.59,1.41,7.25,2.91,10.36,5.11,1.11.79.74,3.68,1.05,5.61-2.27.31-5.26,1.67-6.67.71-2.98-2.03-5.93-2.7-8-.19-1.77,2.15-2.94,5.6-2.77,8.38.31,5.02,3.68,8.58,8.44,10.15,4.24,1.4,7.29-1.27,10.03-4.11,8.86-9.19,17.71-18.4,26.75-27.79-1.04-.4-2.31-1.08-3.67-1.4-19.35-4.65-32.02-17.04-39.59-34.87-5.57-13.12-9.28-27.1-19.23-38.03-.79-.86-.86-3.49-.13-4.34.94-1.1,3.25-2.03,4.54-1.63,2.09.65,4.42,2.04,5.59,3.82,4,6.06,7.68,12.35,11.19,18.72,1.57,2.85,2.46,6.07,3.92,9.81,6.51-10.45,12.44-20.15,6.66-32.19-.53-.16-.97-.43-1.13-.32-3,2.2-6.11,3.16-8.63-.39-1.9-2.68.1-7.12,3.72-9.18,4.59-2.61,9.91-1.85,12.48,3.24,2.79,5.51,4.04,11.8,5.86,17.79.37,1.22.26,2.58.4,4.34,7.21.21,12.78,2.98,15.04,10.13,1.35,4.26,1.81,8.7-1.99,12.01-1.32,1.15-3.7,1.96-5.3,1.6-1.06-.24-1.77-2.77-2.3-4.38-.34-1.06.15-2.37-.13-3.47-.5-1.96-.82-4.98-2.07-5.49-1.77-.73-4.63-.16-6.46.85-4.98,2.75-6.66,7.78-7.08,13.05-.75,9.53,2.69,17.3,10.85,22.6,2.88,1.87,5.99,3.38,9.57,5.37.49-2.69.67-4.8,1.29-6.78,1.61-5.14,3.35-10.24,5.17-15.32,1.54-4.3,3.05-8.64,5.02-12.75.86-1.79,2.85-4.22,4.31-4.2,1.53.01,3.4,2.39,4.43,4.14.63,1.07-.03,2.9-.14,4.39-.26,3.7-.3,6.78,3.84,9.22,2.82,1.67,4.65,5.48,6.16,8.68.61,1.29-.27,4.25-1.45,5.12-.99.73-3.65-.06-5.12-.92-1.65-.97-2.56-3.45-4.24-4.07-1.98-.73-5.18-1.07-6.53.03-3.68,3.01-3.23,7.29-1.52,11.4,1.56,3.75,4.25,5.09,8.34,4.54,8.22-1.12,16.48-2.1,24.74-2.83,9.27-.82,18.28.03,26.39,5.28,1.11.72,2.37,1.21,3.58,1.75.27.12.64.02,1.2.02,1.16-4.66-.86-8.3-4.41-10.73-5.89-4.02-12-7.77-18.27-11.16-16.43-8.89-31.09-19.59-38.31-37.65-2.89-7.23-4.65-14.91-7.2-22.29-2.28-6.58-4.93-13.03-7.43-19.54-.71-1.86-2.02-3.72-1.99-5.57.03-2.01,1.28-4.01,2.01-6.01,1.83.82,4.45,1.14,5.34,2.55,2.55,4.05,4.78,8.41,6.45,12.9,3.13,8.41,5.76,17,8.62,25.51.5,1.49,1.06,2.96,1.84,5.12,5.33-5.49,7.89-11.34,6.8-18.06-.92-5.69-2.88-11.24-4.62-16.77-1.81-5.75-3.96-11.45-1.6-17.5.77-1.97,1.77-4.3,3.39-5.37,1.64-1.09,4.64-1.7,6.16-.88,1.14.62,1.91,4.49,1.08,5.76-3.05,4.66-2.27,9.11-.59,13.76,1.33,3.67,3.17,5.04,7.49,3.45,9.39-3.46,19.6,5.67,17.14,15.21-.56,2.16-3.01,3.83-4.59,5.73-1.3-1.83-2.98-3.51-3.8-5.53-1.07-2.63-.43-6.71-4.66-6.47-4.17.23-5.71,3.39-5.81,7.38-.22,8.55-.85,16.98-7.09,23.8-1.75,1.91-4.37,4.19-4.33,6.26.04,2.17,2.41,4.77,4.41,6.35,8.43,6.65,16.9,13.29,25.78,19.31,5.14,3.49,11.08,5.79,17.65,9.12-.57-14.42-2.12-27.45-11.74-37.85-4.49-4.85-7.21-3.71-8.73,2.92-.26,1.13-.48,2.46-1.2,3.24-1.13,1.21-2.76,2.89-4.03,2.77-1.34-.12-3.1-1.9-3.64-3.34-1.88-5.02,1.23-13.36,5.54-16.63,4.57-3.47,9.15-2.04,13,.56,4.86,3.28,9.05,7.53,13.8,11.59.32-9.26-1.64-17.98-7.22-25.56-6.01-8.17-12.45-16.01-18.63-24.06-9.07-11.81-13.88-24.92-11.83-40.01.33-2.44.72-5.07,1.91-7.13.76-1.31,3.04-1.75,4.63-2.59.66,1.31,1.78,2.58,1.92,3.94.78,7.92,1.3,15.86,1.97,23.79.07.77.56,1.51,1.12,2.94,1.72-1.11,3.23-1.95,4.6-2.99,4.18-3.16,8.17-2.29,11.82.74,1.12.93,2.4,3.05,2.04,4.06-.49,1.36-2.36,2.75-3.88,3.12-7.73,1.91-9.05,4.58-4.31,11.15,4.6,6.38,9.83,12.3,15.52,19.34.98-2.5,1.7-3.47,1.7-4.45-.04-7.99.2-16.02-.52-23.96-.33-3.56-2.17-7.26-4.17-10.34-6.39-9.86-12.39-19.78-12.39-32.05,0-2.31-.8-5.32,3.07-5.69,3.71-.36,4.86,1.87,5.5,5,2.45,11.94,6.81,22.93,16.23,31.66,7.16-9.14,13.16-18.58,14.6-30.26.12-.99-.04-2.31.53-2.89,1.32-1.35,3.01-2.35,4.55-3.49,1.01,1.37,2.77,2.66,2.92,4.12,1.33,13.09-3.86,24.11-11.84,33.92-2.92,3.58-4.28,7.1-4.11,11.72.32,8.51.09,17.04.09,25.57.76.23,1.52.46,2.28.68,5.44-7.21,11.17-14.23,16.19-21.72,2.5-3.74.78-6.91-3.39-7.9-3.03-.72-6.6-1.19-5.41-5.36,1.08-3.78,4.67-5.48,8.32-4.58,3.21.79,6.08,2.94,9.68,4.78.6-3.2,1.6-6.66,1.81-10.17.32-5.31-.12-10.67.2-15.99.1-1.64,1.63-3.2,2.51-4.79,1.85,1.1,4.05,1.89,5.42,3.42.96,1.06.93,3.13,1.09,4.78,1.65,16.93-2.97,31.85-13.97,44.94-6.2,7.38-12.02,15.1-17.75,22.85-5.1,6.89-6.18,14.82-5.1,23.69,2.47-2.7,4.61-5.13,6.85-7.45,1.15-1.19,2.34-2.46,3.75-3.27,4.79-2.76,9.98-6.02,15.27-2.16,5.41,3.94,6.76,10.19,5.84,16.58-.22,1.54-2.55,3.55-4.19,3.85-1.19.22-2.94-1.9-4.22-3.2-.47-.48-.13-1.66-.45-2.4-.87-2-1.9-3.94-2.87-5.9-2.15,1.08-4.95,1.63-6.35,3.33-8.73,10.61-11.47,23.2-11.69,37.46,18.81-9.41,37.11-18.06,49.18-35.78-2.57-3.15-5.13-5.97-7.34-9.05-3.81-5.29-5.65-11.21-5.28-17.83.13-2.27.16-4.91-.86-6.78-.84-1.54-3.22-2.73-5.07-2.99-.82-.12-2.54,2.29-2.95,3.8-.93,3.44-.47,8.3-5.77,7.49-5.18-.79-4.39-5.63-4.1-9.33.58-7.62,7.29-12.52,15.15-11.65,2.62.29,7.08.81,7.65-.31,1.78-3.52,2.4-7.74,2.85-11.75.22-2.02-1.18-4.16-1.34-6.29-.11-1.46.41-4.13,1.04-4.26,1.72-.34,4.06-.18,5.42.8,4.39,3.13,5.41,8.03,4.69,12.95-.69,4.72-2.66,9.25-3.52,13.97-1.22,6.78-2.59,13.64-2.59,20.47,0,3.25,3,6.51,4.65,9.76.56-.12,1.13-.23,1.69-.35,2.38-7.17,4.56-14.42,7.19-21.5,2.41-6.52,5.24-12.89,8.03-19.27.57-1.32,1.56-2.72,2.75-3.42,1.14-.67,3.08-1.02,4.14-.48.92.47,1.67,2.47,1.5,3.65-.39,2.77-1.24,5.5-2.14,8.16-3.49,10.4-7.57,20.62-10.5,31.17-6.35,22.84-21.48,37.57-41.9,48.12-7.03,3.63-13.6,8.28-19.97,13.02-2.76,2.06-5.05,5.4-2.25,9.52,11.76-8.92,24.99-9.38,38.63-7.57,5.6.74,11.17,1.67,16.75,2.5,3.39.51,6.92.08,7.71-3.62.79-3.68,1.11-7.98-.1-11.39-.92-2.61-4.52-3.91-7.33-.58-1.18,1.39-2.37,3.06-3.93,3.77-1.73.78-4.31,1.38-5.73.61-1.09-.59-1.82-3.88-1.16-5.2,1.51-3.03,3.45-6.37,6.16-8.13,3.27-2.12,4.15-4.24,3.53-7.76-.34-1.94-.56-4.14.04-5.93.5-1.5,2.26-3.59,3.46-3.59,1.6,0,3.9,1.41,4.67,2.86,2.91,5.54,5.66,11.21,7.84,17.07,2.07,5.55,3.38,11.39,5.21,17.78,6.68-2.98,14.33-6.55,17.83-14.99,3.34-8.04,2.58-16.2-2.62-23.21-1.51-2.04-5.34-3.29-8-3.14-1.24.07-2.31,4.32-3.3,6.74-.29.72.22,1.8-.12,2.45-.84,1.58-1.79,4-3.04,4.24-1.44.28-3.87-1-4.81-2.35-5.58-7.96-1.21-18.9,8.41-20.37,5.03-.77,6.14-2.68,6.6-7.59.52-5.56,2.66-11.18,5.09-16.29,1.65-3.47,5.9-5.03,9.5-3.36,2.63,1.22,4.65,4.13,6.37,6.68.57.85-.18,3.38-1.14,4.24-.93.83-3.19,1.1-4.36.55-3.93-1.86-4.93.02-5.62,3.41-1.97,9.59-1.84,12.47,8.05,28.03,1.06-2.9,1.93-5.3,2.81-7.69,3.25-8.84,7.4-17.16,15.11-22.98,1.58-1.19,4.12-1.1,6.22-1.61.02,2.47,1.11,5.99-.12,7.26-10.21,10.52-12.77,24.62-18.35,37.31-7.56,17.22-20.13,29.05-38.56,34.14-1.09.3-2.12.84-3.88,1.56,4.73,5.05,9.17,9.9,13.75,14.62,4.76,4.9,9.57,9.76,14.54,14.45,4.25,4.01,6.7,4.01,11.42.6,5.05-3.65,7.04-10.38,4.16-14.2-2.36-3.14-4.64-5.29-9.06-2.35-1.74,1.16-6.17.98-7.38-.37-2.33-2.61-.5-5.87,2.33-7.47,2.66-1.51,5.74-2.99,8.69-3.11,3.65-.16,4.81-1.65,5.65-4.81,1.06-3.98,2.5-7.91,4.24-11.64.87-1.86,2.55-3.58,4.29-4.7,1.14-.73,3.45-.86,4.5-.15,1.03.69,1.16,2.77,1.62,4.26.09.28-.02.71-.19.96-6.95,10.42-4.02,22.22-4.85,33.53-.37,5.08-1.87,10.07-2.83,14.95,5.15-.04,10.66-5.34,12.47-12.95.38-1.61.37-3.55,1.3-4.74,1.05-1.35,2.99-2.8,4.49-2.74,1.19.04,2.94,2.12,3.31,3.58.55,2.18.69,4.81-.03,6.9-1.42,4.14.03,6.81,2.81,9.72,4.33,4.54,4.67,12.29.77,16.38-1.26,1.32-3.68,1.96-5.59,1.99-.62.01-1.82-2.85-1.87-4.43-.3-10.36-.09-10.03-9.96-6.05-4.67,1.88-9.93,2.71-14.99,3.09-3.99.3-5.69,1.19-6.31,5.52-.56,3.95-2.72,7.74-4.57,11.41-.77,1.53-2.35,3.16-3.91,3.66-2.33.74-4.96.52-7.47.71.35-2.45.43-4.98,1.14-7.31.4-1.31,1.88-2.28,2.8-3.45,3.06-3.89,3.55-11.75.41-14.96-9.98-10.24-19.36-21.31-30.51-30.09-11.17-8.79-24.75-13.79-39.52-12.36-7.67.74-14.5,4.12-20.02,9.89,5.51,0,10.74-.36,15.91.07,14.89,1.25,24.78,9.65,30.93,22.78,2.11,4.49,3.48,9.32,5.29,13.96.96,2.47,2.03,4.91,3.24,7.27,2.42,4.69,6.02,6.59,11.51,5.52,1.82-.35,4.07,1.48,6.13,2.31-.94,1.93-1.39,4.47-2.9,5.67-5.58,4.43-14.12,2.77-19.53-3.6-2.24-2.64-4.07-5.64-5.87-8.16-3.78,1.43-7.21,3.14-10.84,3.99-4.66,1.09-9.35-1.94-9.81-6.15-.2-1.79.24-4.42,1.43-5.35,1.03-.81,3.55.09,5.35.51.91.21,1.68,1.04,2.71,1.71,3.55-1.81,5.72-4.82,5.26-8.71-.96-8.2-5.24-14.47-12.83-19.37-.73,1.92-1.25,3.4-1.85,4.84-2.2,5.37-4.14,10.87-6.74,16.04-2.21,4.39-3.63,8.55-1.37,13.29.42.89.97,2.05.72,2.86-.6,1.89-1.22,4.32-2.66,5.21-.93.58-3.89-.66-4.93-1.91-4.46-5.37-4.43-11.75-2.39-17.95,1.49-4.55,4.12-8.71,5.91-13.18,1.53-3.82,3.63-8.53-.7-11.33-4.02-2.61-7.32,1.2-10.33,3.72-6.66,5.58-7.54,13.18-7.49,21.19.18,28.82-.3,57.65.57,86.45.69,22.87,1.88,45.8,7.43,68.22"/><path d="M121.52,50.63c-2.75-3.06-5.35-4.63-5.61-6.52-.49-3.56,2.22-6.16,5.69-5.69,1.87.26,4.69,3.02,4.73,4.72.05,1.99-2.44,4.05-4.81,7.5Z"/><path d="M64.73,104.15c-1.97,1.62-3.86,4.37-5.92,4.51-1.65.11-4.53-2.72-5.02-4.7-.78-3.12,1.7-5.55,4.91-5.26,2.06.18,3.96,2.05,5.93,3.16.03.76.06,1.53.09,2.29Z"/><path d="M170.35,3.69c-.84,4.53-2.98,6.56-5.77,5.76-1.88-.54-4.03-3.33-4.25-5.32-.14-1.3,2.92-4.07,4.62-4.13,1.75-.06,3.6,2.35,5.41,3.69Z"/><path d="M272,98.16c1.23,1.97,3.58,4.06,3.39,5.88-.19,1.81-2.94,3.35-4.56,5.01-1.42-1.95-3.53-3.74-4-5.89-.3-1.37,1.84-3.27,2.88-4.93.76-.03,1.53-.05,2.29-.08Z"/><path d="M207.46,48.97c-1.22-1.95-3.31-3.89-3.36-5.87-.03-1.38,3.26-4.27,4.16-3.95,2.08.74,4.39,2.77,5.05,4.79.39,1.18-2.22,3.34-3.48,5.06-.79-.01-1.58-.02-2.38-.03Z"/><path d="M324.1,156.35c-1.09-1.64-3.21-3.45-2.98-4.89.26-1.64,2.44-3.72,4.13-4.11,1.11-.25,3.97,2.16,3.99,3.41.02,1.84-1.78,3.71-2.81,5.56-.77,0-1.55.02-2.32.03Z"/><path d="M4.35,157.34c-2.11-2.72-4.61-4.62-4.33-5.93.38-1.77,2.74-4.01,4.52-4.28,1.22-.18,3.93,2.56,4.06,4.16.13,1.54-2.19,3.29-4.26,6.04Z"/></g></svg>